SplineFontDB: 3.0
FontName: CoelacanthHeavyMinikin
FullName: Coelacanth Heavy Minikin
FamilyName: CoelacanthHeavy
Weight: Heavy

StartChar: a
Encoding: 97 97 0
Width: 542
VWidth: 1159
Flags: W
HStem: -23.4434 132.84<125.665 265.711 379.813 490.475> 240.601 88.3965<228.893 302.308> 414.209 119.184<230.27 317.706>
VStem: 55.5088 151.448<78.0991 215.763> 302.141 150.859<127.876 240.601 326.96 405.107>
LayerCount: 2
Fore
SplineSet
302.307617188 240.600585938 m 1
 300.142578125 240.198242188 292.370117188 239.739257812 280.954101562 237.499023438 c 1
 250.010742188 232.302734375 222.985351562 217.530273438 217.508789062 213 c 0
 207.508789062 204.727539062 206.95703125 187.04296875 206.95703125 160.328125 c 3
 206.95703125 131.485351562 220.624023438 109.396484375 232.676757812 109.396484375 c 3
 249.60546875 109.396484375 281.185546875 112.354492188 299.077148438 127.150390625 c 1
 300.1875 142.650390625 301.856445312 157.443359375 302.140625 175.438476562 c 1
 302.640625 197.502929688 303.2421875 226.897460938 302.307617188 240.600585938 c 1
299.634765625 533.392578125 m 3
 335.77734375 533.392578125 426.211914062 478.529296875 444.733398438 451.282226562 c 0
 459.689453125 429.280273438 458.234375 401.852539062 458.234375 384.463867188 c 1
 458.234375 305.252929688 453 192.821289062 453 118.719726562 c 1
 453 116.041992188 453.305664062 115 454.508789062 112 c 0
 455.154296875 110.391601562 456.778320312 110 458.508789062 110 c 3
 462.809570312 110 487.143554688 112.924804688 491.287109375 114.150390625 c 1
 528 9.345703125 l 1
 522.508789062 8 409.901367188 -27.3994140625 390.407226562 -27.3994140625 c 3
 369.21875 -27.3994140625 325.7109375 -6.130859375 310.259765625 27.5361328125 c 1
 265.494140625 -6.84375 227.529296875 -23.443359375 181.58203125 -23.443359375 c 3
 69.7470703125 -23.443359375 55.5087890625 47.7880859375 55.5087890625 108.41015625 c 1
 55.5087890625 147.37890625 58.1904296875 201.33984375 67.9580078125 231.158203125 c 1
 69.46875 241.053710938 84.1591796875 265.25390625 92.0908203125 269.103515625 c 1
 108.685546875 280.46484375 218.828125 323.026367188 304.124023438 328.997070312 c 1
 304.129882812 330.842773438 l 1
 304.129882812 382.844726562 301.491210938 396.829101562 292.427734375 405.518554688 c 1
 287.6484375 409.006835938 279.038085938 414.208984375 274.048828125 414.208984375 c 3
 258.740234375 414.208984375 228.625 408.5078125 228.625 398.23046875 c 3
 228.625 385.7109375 237.80859375 364.678710938 236.8046875 366.901367188 c 1
 89.830078125 313.313476562 l 1
 87.5205078125 313.7578125 68.5087890625 367.663085938 68.5087890625 398.314453125 c 3
 68.5087890625 422.947265625 79.638671875 447.733398438 109.473632812 467.541992188 c 0
 139.002929688 487.147460938 248.639648438 533.392578125 299.634765625 533.392578125 c 3
EndSplineSet
Validated: 524321
EndChar

StartChar: b
Encoding: 98 98 1
Width: 581
VWidth: 1159
Flags: W
HStem: -17.3965 123.049<240.216 359.216> 376.788 118.473<229.092 383.375>
VStem: 75.8525 152.372<137.111 368.53 477.294 597.879> 396.365 154.56<174.597 301.62>
LayerCount: 2
Fore
SplineSet
227.952148438 359.725585938 m 1
 231.118164062 290.348632812 228.224609375 217.377929688 228.224609375 148 c 1
 228.298828125 143.295898438 226.622070312 139.344726562 227.6953125 137 c 1
 246.314453125 119.186523438 286.89453125 105.65234375 313.735351562 105.65234375 c 3
 365.994140625 105.65234375 396.365234375 148.56640625 396.365234375 215.9140625 c 3
 396.365234375 281.01171875 351.680664062 376.788085938 283.524414062 376.788085938 c 3
 256.005859375 376.788085938 244.038085938 362.426757812 227.952148438 359.725585938 c 1
-5 686.204101562 m 1
 27.021484375 682.204101562 105.465820312 718.442382812 197.915039062 759.588867188 c 1
 264.759765625 707.588867188 l 1
 253.319335938 690.588867188 245.416992188 658.064453125 241.969726562 645 c 0
 229.767578125 589.2421875 229.002929688 547.197265625 228.006835938 477.293945312 c 1
 259.404296875 492.748046875 293.860351562 495.260742188 335.825195312 495.260742188 c 3
 430.924804688 495.260742188 550.924804688 378.13671875 550.924804688 283.260742188 c 3
 550.924804688 119.05078125 407.456054688 -17.396484375 254.83203125 -17.396484375 c 3
 189.466796875 -17.396484375 160.883789062 3.1318359375 161.422851562 3.1318359375 c 1
 138.149414062 3.1318359375 132.103515625 -4.080078125 112.779296875 -23.0859375 c 1
 26.998046875 32.0029296875 l 1
 26.998046875 32.0029296875 40.2890625 51.01171875 43.50390625 55.0029296875 c 1
 55 71 75.32421875 86.619140625 75.8525390625 159.002929688 c 0
 76.65234375 287.084960938 79.9052734375 367.1171875 79.8994140625 495.204101562 c 1
 79.896484375 543.109375 78.0029296875 568.477539062 76.025390625 583.204101562 c 0
 73.0390625 596.279296875 60.17578125 600.986328125 34.6884765625 600.387695312 c 1
 34.7587890625 600.387695312 17 600 12.8369140625 599.204101562 c 1
 -5 686.204101562 l 1
EndSplineSet
Validated: 524321
EndChar

StartChar: c
Encoding: 99 99 2
Width: 523
VWidth: 1159
Flags: W
HStem: -25.5674 135.793<280.647 398.743> 389.488 143.258<233.031 362.645>
VStem: 51.3965 160.932<189.56 349.902>
LayerCount: 2
Fore
SplineSet
369.387695312 323.665039062 m 1
 365.630859375 332.368164062 308.442382812 389.48828125 268.3046875 389.48828125 c 3
 247.21484375 389.48828125 212.328125 366.133789062 212.328125 290.341796875 c 3
 212.328125 224.177734375 240.677734375 110.225585938 351.381835938 110.225585938 c 3
 381.16796875 110.225585938 395.163085938 118.853515625 427.655273438 142.196289062 c 1
 488.002929688 46.4267578125 l 1
 434.115234375 10.5849609375 373.307617188 -25.5673828125 298.63671875 -25.5673828125 c 3
 235.196289062 -25.5673828125 51.396484375 16.6396484375 51.396484375 238.23046875 c 3
 51.396484375 402.087890625 177.94921875 532.74609375 327.313476562 532.74609375 c 3
 397.975585938 532.74609375 467.55859375 493.364257812 491 466.74609375 c 1
 475.623046875 379.259765625 484.780273438 385.615234375 369.387695312 323.665039062 c 1
EndSplineSet
Validated: 524289
EndChar

StartChar: d
Encoding: 100 100 3
Width: 608
VWidth: 1159
Flags: W
HStem: -27 21G<408.23 431.149> -17 128.438<194.601 363.403> 20.3965 88<531.106 580.131> 379.102 115.177<203.931 352.889> 571.412 95<297.53 350.804>
VStem: 38 150.328<189.068 328.955> 369.777 149.74<111.449 360.295>
LayerCount: 2
Fore
SplineSet
363.09765625 0.607421875 m 1xbe
 326.195048916 -4.42209 302.944243384 -17 263.564453125 -17 c 3x5e
 128.830811724 -17 38 96.4313752535 38 224.501953125 c 3
 38 313.771722109 89.7144810383 410.550705489 158.616210938 452.0078125 c 0
 213.336395209 484.494330011 262.723112341 494.278320312 325.080078125 494.278320312 c 3
 337.622827944 494.278320312 349.551219113 501.781757812 369.592773438 498.185546875 c 1
 370.863281248 519.745505971 368.560116981 570.230208392 351.118164062 581.83984375 c 0
 344.197579718 589.669122138 351.269256221 574.312499996 346.881835938 574.142578125 c 1
 338.901230769 573.400390625 321.439253606 572.802734375 299.34765625 571.412109375 c 1
 274.674804688 666.412109375 l 1
 353.781960001 682.401641276 434.233849333 711.294321234 494.776367188 762.396484375 c 1
 565.458007812 709.396484375 l 1
 555.44140625 694.934484375 542.411833774 666.86792195 539.744140625 652.396484375 c 0
 514.284875 509.871484375 519.517578125 346.698484375 519.517578125 190.396484375 c 3
 519.517578125 165.820397681 522.015546731 153.632251475 528.681640625 115.120117188 c 1
 529 113 529.943684381 111.602874027 534.776367188 111.120117188 c 0
 556 109 561.318698636 108.896484375 580.130859375 108.396484375 c 1
 612.471679688 20.396484375 l 1
 542.079111007 3.296875 447.019717118 -27 415.278320312 -27 c 1
 401.181640625 -27 380 -17.8672 372.693359375 8 c 1
 372.931231037 -6.3664142664 364.09765625 -6.6851181691 363.09765625 0.607421875 c 1xbe
228.6796875 379.1015625 m 3
 221.320755076 379.1015625 213.261163051 376.087732785 203.473632812 365.67578125 c 0
 201.54501983 356.981628129 188.328125 321.485991101 188.328125 304.801757812 c 3
 188.328125 198.192075866 226.355630536 111.4375 347.408203125 111.4375 c 1
 352.193359375 111.4375 359.272460938 115.578125 365.73046875 117.931640625 c 1
 368.639648438 172.793919002 368.7421875 260.924513913 369.77734375 314.504882812 c 1
 369.77734375 357.034294578 337.543765569 378.880417003 277.373046875 378.504882812 c 0
 263.934767751 379.634443996 249.482031321 379.1015625 228.6796875 379.1015625 c 3
EndSplineSet
Validated: 524321
EndChar

StartChar: e
Encoding: 101 101 4
Width: 574
VWidth: 1159
Flags: W
HStem: -25.0283 131.664<207.256 392.714> 411.789 121.884<254.851 326.932>
VStem: 60.2666 177.446<292.422 371.34>
LayerCount: 2
Fore
SplineSet
295.154296875 533.672851562 m 3
 389.827823263 533.672851562 487.468727024 453.997187527 515.801757812 326.90625 c 1
 516.64153125 317.013953125 527.900390625 311.850585938 536 310.025390625 c 1
 536 228 l 1
 441.006383218 225.310412913 330.890200945 218.28533573 246 211 c 1
 247 209 l 5
 254.383663656 190.374996265 288.839770159 106.635742188 351.173828125 106.635742188 c 3
 385.349414332 106.635742188 412.777972714 131.628353125 435.401367188 154.000976562 c 1
 500.870117188 68.0654296875 l 1
 448.791812885 25.0989421875 385.246211605 -25.0283203125 290.141601562 -25.0283203125 c 3
 124.370174594 -25.0283203125 60.2666015625 137.44308241 60.2666015625 248.1640625 c 3
 60.2666015625 435.30003125 190.511449233 533.672851562 295.154296875 533.672851562 c 3
271.596679688 411.7890625 m 3
 267.049187087 411.7890625 238.419208795 386.060262837 237.712890625 292.421875 c 1
 349 299.5 l 1
 351.996093751 300.014648437 352.241210938 302.169921874 352.556640625 305.169921875 c 1
 356.454370741 377.801605634 320.592712759 411.7890625 271.596679688 411.7890625 c 3
EndSplineSet
Validated: 524321
EndChar

StartChar: f
Encoding: 102 102 5
Width: 465
VWidth: 1159
Flags: W
HStem: -21 109<306.048 402.747> -12 98<55.8117 106.642 306.048 399.488> 623.678 136.139<351.428 476.856>
VStem: 143.142 156.614<91.395 317.397 418.396 581.764>
LayerCount: 2
Fore
SplineSet
454.055664062 759.81640625 m 3x70
 499.657226562 759.81640625 553.990234375 743.580078125 593.305664062 705.580078125 c 1
 598.381835938 650.379882812 564.139648438 613.66015625 494.490234375 565.379882812 c 1
 446.8671875 587.900390625 408.336914062 623.677734375 373.80859375 623.677734375 c 3
 253.745117187 623.677734375 315.561669833 561.134896654 307.591796875 476 c 0
 306.9375 469.010742188 305.2578125 449.522460938 304.08984375 417.396484375 c 1
 342.411318236 420.396484375 376.711728639 422.396484375 413.8671875 426.396484375 c 1
 413.8671875 308.603515625 l 1
 376.260284424 312.603515625 339.528778076 315.51171875 301.922851562 319.51171875 c 1
 300.922851562 313.90234375 299.755859375 286.465820312 299.755859375 284 c 1
 299.755859375 218.611019774 295.037425909 118.655543408 306 90 c 1
 307 88 310.030949684 86.0403009299 311.81640625 86 c 0x70
 343.125634601 85.2932950372 379.506081321 86.5 411.014648438 88 c 1
 402.1796875 -21 l 1xb0
 345.125 -16 264.912109375 -12 201.250976562 -12 c 1
 158.651550293 -12 93.3611450195 -16.6357421875 53.9453125 -19.908203125 c 1
 50.611328125 85.091796875 l 1
 69.228515625 84.835924811 93.4839171443 78.0989544391 107.296875 85 c 0
 115.7477178 89.2220972365 122.344042874 66.5572191122 126.3515625 84.7861328125 c 0
 137.1171875 133.755487264 144.303200037 201.934974682 144.307617188 260 c 1
 144.30859375 267.424804687 143.141601562 304.116210938 143.141601562 317.51171875 c 1
 114.272460938 315.057617188 81.984375 310.603515625 49.61328125 308.603515625 c 1
 49.61328125 426.396484375 l 1
 80.479492187 424.396484375 114.231445313 420.396484375 141.595703125 418.396484375 c 1
 140.514524497 455.412975042 140.025390625 463.710149058 140.025390625 478 c 3
 140.025390625 590.394626495 202.600612139 642.756449354 289.787109375 702 c 0
 341.234860538 736.958939151 380.213305474 759.81640625 454.055664062 759.81640625 c 3x70
EndSplineSet
Validated: 524321
EndChar

StartChar: g
Encoding: 103 103 6
Width: 580
VWidth: 1159
Flags: W
HStem: -300 156.442<162.057 355.675> -63.2314 173.471<252.982 356.544> -55.877 172.294<280.426 413.813> 413.73 110.27<215.841 290.92> 492.249 20G<475.286 551>
VStem: 36.459 125.155<-195.163 -70.7053> 56.9814 154.02<280.195 382.625> 336.795 165.05<253.207 315.314>
LayerCount: 2
Fore
SplineSet
252.693359375 119.91015625 m 1x8b
 254.982421875 114.668164062 246.545898437 110.239257812 278.918945312 110.239257812 c 1xcb
 298.385742188 110.239257812 317.809570313 116.416992188 344.719726562 116.416992188 c 1
 476.930053512 116.416992188 541.313476562 17.2994530782 541.313476562 -75.9755859375 c 1
 541.313476562 -241.089890625 335.057196699 -300 227.282226562 -300 c 1
 112.544239062 -300 36.458984375 -224.482726562 36.458984375 -165.842773438 c 1xa5
 36.458984375 -81.135944813 78.6474531256 -30.785886508 116.696289062 -1.3466796875 c 1
 100.823834375 23.1781447344 76.3106453123 88.6285834711 81.2939453125 122.708007812 c 1
 92.5712453124 138.532421875 97.5770265626 147.547265625 110.833007812 158.009765625 c 1
 76.2851562504 198.443925561 56.9814453125 241.444608359 56.9814453125 306.692382812 c 1
 56.9814453125 437.495085938 234.995587628 524 289.021484375 524 c 1xb3
 332.543617188 524 375.004015625 513.4331875 414.061523438 494.392578125 c 1
 440.215807292 506.62226563 461.666078125 512.249023438 488.90625 512.249023438 c 3
 528.07265348 512.249023438 533.80494884 512.249023438 551 512.249023438 c 1
 551 512.249023438 529.077206915 373.58992174 529.831054688 371.010742188 c 1
 518.930186364 367.343279881 503 365 499 364 c 0
 499 364 498 364 498.149414062 363.275390625 c 1
 500.867835938 353.793414062 501.844726562 311.136710938 501.844726562 315.314453125 c 1
 501.844726562 216.372417306 363.801311225 164.238136733 285.75 139.279296875 c 0
 276.045007569 136.175885182 257.227539062 126.012361946 252.693359375 119.91015625 c 1x8b
243.1015625 413.73046875 m 1x93
 219.519674574 413.73046875 211.000976562 392.691804688 211.000976562 360.20703125 c 1
 211.000976562 295.221059673 255.839241055 233.890963857 273 239 c 1
 307.838529916 224.531063117 336.794921875 267.639588886 336.794921875 277.801757812 c 1
 336.794921875 336.678790328 297.191058073 413.73046875 243.1015625 413.73046875 c 1x93
161.614257812 -123.404296875 m 3xc5
 161.614257812 -139.163421666 213.408054018 -143.557617188 256.661132812 -143.557617188 c 3
 325.396216352 -143.557617188 417.7265625 -107.546319721 417.7265625 -89.555664062 c 1
 417.7265625 -61.8398392705 392.911132812 -55.876953125 371.235351562 -55.876953125 c 3xa5
 336.813516268 -55.876953125 304.382635389 -63.2314453125 279.865234375 -63.2314453125 c 3
 246.749023438 -63.2314453125 200.64453125 -54.7929687495 178.599609375 -43.5068359375 c 1
 165.211914062 -70.041457178 161.614257812 -108.553391116 161.614257812 -123.404296875 c 3xc5
EndSplineSet
Validated: 524321
EndChar

StartChar: h
Encoding: 104 104 7
Width: 629
VWidth: 1159
Flags: W
HStem: -20 100<52.4506 101.266 386.682 418.666> 369.45 125.75<330.097 467.79> 587.405 101<64.6032 116.733 117 120.023>
VStem: 122.076 151.961<91.4892 347.728 424.579 590.674> 413.733 157.631<81.3662 340.394>
LayerCount: 2
Fore
SplineSet
273.251953125 335.047851562 m 1
 272.732798948 301.190875364 271.072498516 243.928424339 274.037109375 185 c 1
 276.420502092 146.946010926 273.498743479 126.195805821 284.705078125 84.8037109375 c 1
 286.973632812 85.2429309873 282.085430794 80.8520481194 292.194335938 81 c 0
 302.349084504 79.9580713887 324.198910362 77.2 337.379882812 77 c 1
 322.875976562 -23 l 1
 280.319441512 -17 251.095439189 -10 201.147460938 -10 c 1
 157.166992188 -10 96.5361328125 -16 52.556640625 -20 c 1
 43.720703125 80 l 1
 65.1435546875 82 84.9229663834 85.2595568132 102.071289062 89 c 0
 105.837232871 87.4589945768 113.90718075 103.546674776 112.913085938 89.251953125 c 1
 119.554678268 136.460504606 122.076171875 217.137734769 122.076171875 276 c 1
 122.076171875 481.492141824 125.534734359 564.579902636 117 592 c 1
 111.179487395 595.515262559 112.816666667 584 108 593 c 1
 97.1319542815 591.993601249 78.9347114092 589.427418126 65.0068359375 587.405273438 c 1
 36 688.405273438 l 1
 109.957925907 698.150390625 189.162909527 722.749023438 247.203125 758.79296875 c 1
 312.548828125 705.79296875 l 1
 310.418805804 693.485276442 305.375954304 669.42008913 301.973632812 656.79296875 c 0
 284.969726562 605.350707793 277.967773438 514.995093019 275.967773438 424.579101562 c 1
 330.20225057 464.805117188 397.48092074 495.200195312 420.14453125 495.200195312 c 3
 515.435449493 495.200195312 570.838669184 424.855920879 573.725585938 341.200195312 c 1
 574.955078125 317.365051142 576.364257812 232.751841706 571.364257812 177.200195312 c 1
 571.364257812 137.733360035 569.856445312 100.456590302 569.856445312 81.3662109375 c 1
 572.180664062 91.1115956792 584.307614035 78.296169699 582.912109375 76.4697265625 c 0
 592.791224945 73.69140625 617.378020302 77.2001953125 628.329101562 75.2001953125 c 1
 610.491210938 -25.7998046875 l 1
 571.815620256 -16.7998046875 544.844486004 -11.7998046875 500.766601562 -11.7998046875 c 1
 459.913028493 -11.7998046875 422.37511489 -18.7998046875 390.444335938 -25.7998046875 c 1
 387.823147523 -3.34426651632 377.430039576 52.1643251446 378.108398438 72.2001953125 c 1
 393.169813367 73.4001953125 409.760232529 74.5807358477 418.790039062 78.2001953125 c 0
 415.756553276 78.9433915195 409.419104726 91.8715418078 409.086914062 94.0419921875 c 0
 408.971451716 111.25231167 413.733398438 131.207652085 413.733398438 142.200195312 c 3
 413.733398438 185.41581166 415.745491523 286.455719325 409.2890625 298.200195312 c 0
 393.293984833 339.728063072 386.488472965 369.450195312 346.005859375 369.450195312 c 3
 314.189057118 369.450195312 308.907404338 352.362304688 273.251953125 335.047851562 c 1
EndSplineSet
Validated: 524321
EndChar

StartChar: k
Encoding: 107 107 10
Width: 616
VWidth: 1159
Flags: HW
HStem: -23 103<32.7988 87.1814 543.324 606.327> 425 94<518.657 577.041> 582.006 101<45.2609 87.7167>
VStem: 103.605 152.426<291.933 576.626>
LayerCount: 2
Fore
SplineSet
250.479492188 291.932617188 m 1
 280.074371803 316.33830232 345.995117188 385.934416336 345.995117188 411.700195312 c 3
 345.995117188 414.296385144 343.995117188 421.700195312 340.995117188 422.700195312 c 1
 323.497719573 425.228902014 327.59752822 424.919115896 323.874023438 425 c 1
 331.708984375 519 l 1
 362.742187499 517 397.465820313 513 432 513 c 1
 478.84733073 513 525.897569444 515 576.6328125 521 c 1
 584.46875 423 l 1
 507.809880454 415.839242788 394.999999999 330.000000001 371.477539062 308.174804688 c 0
 353.301030164 291.309823687 343.415107523 280.058268231 335 266 c 1
 413.439663818 211.668840978 464.636437571 157.712209549 547.169921875 97.451171875 c 1
 567.51336472 82.6482005492 587.24609375 84.716796875 620 80 c 1
 605.330078125 -23 l 1
 557.48046875 -17 515.885742188 -11 462.202148438 -11 c 1
 420.942382812 -11 381 -19 338.575195312 -21 c 1
 329.740234375 85 l 1
 333 86 336.341796876 86.861328125 333.6171875 90 c 1
 311.596350281 113.795332119 312.279475691 120.501141916 256 167 c 1
 256.010115064 166.668662922 256.020536223 166.335303751 256.031256952 166.000000664 c 0
 256.693975158 145.272728825 258.501432515 117.117202095 259.912086121 100.000000537 c 1
 261 94 265 92 270.267578125 90 c 1
 283.951171875 86.619140625 285.0546875 86.5 304.618164062 87 c 1
 287.948242188 -23 l 1
 231.569335938 -16 234.557617187 -10 165.9375 -10 c 1
 119.09375 -10 82.9072265625 -18 32.798828125 -20 c 1
 23.7958984375 82 l 1
 43.15625 83 54.0878846252 84.9004203089 70.814453125 89 c 1
 81.0107421875 87.94140625 83.153320312 98.822265625 87.377929688 90.8896484375 c 1
 95.483398438 137.694335937 103.60546875 217.836914062 103.60546875 276 c 1
 103.60546875 487.1909057 101.566451778 552.4465339 96.5751953125 577.845703125 c 0
 95.8908318907 582.140538452 92.3326483749 583.68568156 88.2529296875 583.643554688 c 0
 77.0322284062 583.527690559 61.5150814774 583.734374999 47.1904296875 582.005859375 c 1
 19.3505859375 683.005859375 l 1
 114.439262886 695.909968964 163.573242188 713.19921875 237.654296875 759.994140625 c 1
 304.5 706.994140625 l 1
 297.954101563 694.686523437 288.660427449 670.621502692 285.740234375 657.994140625 c 0
 272.017578125 598.655273438 250.5078125 409.916015625 250.479492188 291.932617188 c 1
EndSplineSet
EndChar

StartChar: l
Encoding: 108 108 11
Width: 367
VWidth: 1159
Flags: W
HStem: -20 21G<24.2284 45.0054> 582.006 101<50.4375 92.0049>
VStem: 104.307 157.815<108.805 594.957>
LayerCount: 2
Fore
SplineSet
262.122070312 303 m 1
 262.122070312 234.983398438 263.288085938 124.462890625 274.03125 91.337890625 c 1
 275 89 277.970955771 87.3235122337 279 87 c 1
 303.467521762 81.3119288713 324.970475465 82.5174117066 349 81 c 1
 332.329101562 -24 l 1
 272.452148438 -17.4541015625 218.91796875 -10 153.758789062 -10 c 1
 113.08203125 -10 64.24609375 -16 25.7646484375 -20 c 1
 17.9296875 82 l 1
 37.1533203125 83 61.2802734375 82.4365234375 76.1171875 87.908203125 c 1
 76.40625 83.7900390625 83.9365234375 106.692382812 89.154296875 106.688476562 c 1
 97.8056640625 151.309570312 104.306640625 230.370117188 104.306640625 276 c 1
 104.306640625 499.682617188 99.9227874305 617.600176222 100.536132812 596.477539062 c 0
 101.075195312 577.913085938 94.2841796875 579.40234375 92.5263671875 580.681640625 c 1
 81.6640625 579.681640625 53.75 582.005859375 50.4375 582.005859375 c 1
 22.59765625 683.005859375 l 1
 113.489257812 697.91015625 169.6875 713.19921875 240.299804688 759.994140625 c 1
 307.64453125 706.994140625 l 1
 312.02734375 697.686523438 292.791754204 670.183459717 289.638671875 657.994140625 c 0
 271.790039062 588.994140625 262.122070312 420 262.122070312 303 c 1
EndSplineSet
Validated: 524321
EndChar

StartChar: m
Encoding: 109 109 12
Width: 923
VWidth: 1159
Flags: W
HStem: -20 100.229<44.6227 72.249 270.195 302.175 366.275 386.783> 390.115 123.885<604.331 734.111> 393.753 131.247<330.517 425.031>
VStem: 125.348 143.453<111.995 362.998> 395.771 149.87<78.7354 366.179> 675.631 152.778<85.0498 361.761>
LayerCount: 2
Fore
SplineSet
828.409179688 188.1484375 m 1xdc
 828.409179688 150.659179688 830.357421875 114.466796875 830.799804688 95 c 1
 830.799804688 91 835.799804688 86 839.799804688 85 c 1
 852.060546875 83.1064453125 895.717773438 80.47265625 909.799804688 77.4541015625 c 1
 893.129882812 -24.591796875 l 1
 847.770507812 -15.591796875 822.64453125 -10.591796875 770.780273438 -10.591796875 c 1
 719.651367188 -10.591796875 677.864257812 -17.591796875 637.978515625 -24.591796875 c 1
 625.80859375 73.408203125 l 1
 636.303710938 74.30078125 650.954101562 76.6787109375 658.9921875 78.1298828125 c 1
 658.315429688 75.2568359375 666.865234375 91.6884765625 668.997070312 106.703125 c 1
 671.860351562 120.23828125 675.630859375 154.133789062 675.630859375 163.009765625 c 1
 675.630859375 212.376953125 670.016601562 303.356445312 668.1640625 316.973632812 c 1
 655.734375 366.228515625 649.83984375 390.115234375 589.110351562 390.115234375 c 3xdc
 583.61328125 390.115234375 557.81640625 358.94140625 548.015625 328.364257812 c 1
 545.32421875 325.04296875 546.6171875 320.610351562 545.923828125 313.287109375 c 1
 544.090820312 293.923828125 545.173828125 239.659179688 545.641601562 211.614257812 c 1
 546.471679688 163.3203125 549.188476562 108.627929688 551.799804688 91 c 1
 552.799804688 85 555.799804688 82 560.219726562 78.5751953125 c 1
 563.591796875 76.0927734375 588.208984375 73.5 595.905273438 72.6083984375 c 1
 581.567382812 -24.591796875 l 1
 535.6015625 -15.591796875 524.2421875 -10.591796875 470.403320312 -10.591796875 c 1
 429.521484375 -10.591796875 396.671875 -17.591796875 366.588867188 -24.591796875 c 1
 354.418945312 73.408203125 l 1
 360.565429688 74.0947265625 371.92578125 77.625 375.799804688 78 c 1
 378.799804688 79 382.033203125 82.77734375 383.639648438 90.3359375 c 1
 390.17578125 107.733398438 395.771484375 155.502929688 395.771484375 169.255859375 c 1
 395.771484375 222.8359375 396.014648438 339.737304688 384.575195312 358.19921875 c 1
 374.1796875 377.163085938 357.3359375 393.752929688 321.002929688 393.752929688 c 1
 312.7421875 393.752929688 280.833007812 356.96875 273.287109375 328.580078125 c 1
 272.194335938 252.844726562 268.80078125 124.83203125 268.80078125 93.171875 c 1
 268.799804688 90 272.741210938 87.8212890625 277.151367188 86.474609375 c 0
 291.799804688 82 307.076171875 78.1376953125 316.319335938 77.4921875 c 1
 301.81640625 -23 l 1
 250.701171875 -17 231.19921875 -10 174.151367188 -10 c 1
 131.673828125 -10 87.3125 -16 44.8349609375 -20 c 1
 36 80.2294921875 l 1
 49.7734375 82.2431640625 58.5810546875 83.0830078125 72.9169921875 86.3740234375 c 0
 83.857421875 88.8857421875 96.8564453125 105.897460938 105.6484375 114.05859375 c 1
 120.333007812 141.82421875 125.34765625 217.556640625 125.34765625 255.137695312 c 1
 125.34765625 267.90234375 116.40625 353.84765625 112.08203125 366.754882812 c 0
 104.211914062 390.243164062 88.6142578125 397.48828125 68.9609375 397.48828125 c 1
 67.83984375 397.48828125 57.6279296875 396.396484375 52.0068359375 396.396484375 c 1
 40.669921875 487.396484375 l 1
 116.389648438 493.986328125 145.548828125 490.864257812 223.80078125 536.994140625 c 1
 291.13671875 485.584960938 l 1
 283.7109375 466.197265625 278.141601562 452.513671875 276.286132812 429.93359375 c 1
 304.684570312 469.787109375 356.993164062 525 404.282226562 525 c 1xbc
 474.6953125 525 531.029296875 472.49609375 545.55859375 421.295898438 c 1
 586.356445312 463.125 630.249023438 514 694.171875 514 c 1
 818.639648438 514 831.576171875 414.515625 831.576171875 364.885742188 c 1
 831.576171875 318.99609375 828.409179688 235.852539062 828.409179688 188.1484375 c 1xdc
EndSplineSet
Validated: 524321
EndChar

StartChar: n
Encoding: 110 110 13
Width: 641
VWidth: 1159
Flags: W
HStem: -20 99<49.2955 104.401 269.134 310.555 388.093 403.442 565.647 614.715> 401.914 125.264<327.547 458.558> 412.805 91<40.3369 91.8575>
VStem: 118.857 147.107<97.3077 364.102> 404.892 158.416<94.3409 346.649>
LayerCount: 2
Fore
SplineSet
101.908203125 396.823242188 m 0xd8
 99.5966796875 410 95.5966796875 413 92.0185546875 412.897460938 c 1
 89.1806640625 412.897460938 47.6748046875 412.8046875 40.3369140625 412.8046875 c 1
 29 503.8046875 l 1xb8
 109.670898438 513.8046875 145.321289062 505.994140625 231.698242188 547.994140625 c 1
 297.8671875 501.994140625 l 1
 293.22265625 495.508789062 287.474609375 455.446289062 286.884765625 451.994140625 c 1
 324.943359375 485.854492188 370.172851562 527.177734375 415.860351562 527.177734375 c 3
 501.255859375 527.177734375 569.131835938 464.211914062 569.131835938 377 c 3
 569.131835938 305.95703125 563.307617188 187.362304688 563.307617188 126 c 1
 563.307617188 113.71484375 564.158203125 101.189453125 565.596679688 94 c 0
 566.596679688 89 572.09765625 86.498046875 575.596679688 85 c 1
 581.743164062 82.9169921875 622.9765625 77.6279296875 632 77 c 1
 614.163085938 -24 l 1
 563.561523438 -15 543.305664062 -10 486.889648438 -10 c 1
 449.114257812 -10 416.797851562 -17 388.477539062 -23 c 1
 376.30859375 75 l 1
 382.815429688 75.8798828125 395.692382812 78.005859375 400.596679688 79 c 1
 404.29296875 80.4775390625 404.6015625 92.6826171875 404.8203125 92.9970703125 c 1
 404.834960938 104.784179688 404.891601562 117.8671875 404.891601562 119 c 1
 404.700195312 286.346679688 403.607421875 319.138671875 395.737304688 348.005859375 c 1
 387.244140625 372.174804688 372.1953125 401.9140625 340.908203125 401.9140625 c 3
 314.185546875 401.9140625 286.685546875 378.202148438 278.485351562 367.291992188 c 1
 271.89453125 299.21875 265.264648438 232.541992188 265.96484375 188.442382812 c 1
 267.51953125 126.43359375 267.314453125 82.6005859375 275.274414062 80 c 1
 286.204101562 77.6357421875 310.013671875 78.400390625 323.483398438 78 c 1
 310.146484375 -22 l 1
 261.110351562 -16 241.641601562 -10 186.831054688 -10 c 1
 141.203125 -10 95.2255859375 -16 49.5986328125 -20 c 1
 39.5966796875 79 l 1
 63.76953125 80.2353515625 93.5966796875 80 104.946289062 83.81640625 c 0
 106.412109375 84.3095703125 107.751953125 96.328125 110.19140625 96.068359375 c 1
 115.233398438 121.879882812 118.857421875 188.21875 118.857421875 223 c 1
 118.857421875 248.393554688 106.46484375 370.845703125 101.908203125 396.823242188 c 0xd8
EndSplineSet
Validated: 524321
EndChar

StartChar: o
Encoding: 111 111 14
Width: 593
VWidth: 1159
Flags: W
HStem: -19.4824 120.13<274.638 357.858> 403.518 130<228.957 314.792>
VStem: 30 170.833<198.026 351.795> 388.08 175.014<158.962 321.779>
LayerCount: 2
Fore
SplineSet
296.301757812 533.517578125 m 3
 465.466796875 533.517578125 563.09375 391.986002521 563.09375 268 c 3
 563.09375 132.862764713 460.834960938 -19.482421875 296.43359375 -19.482421875 c 3
 154.673828125 -19.482421875 30 94.2117691728 30 239.551757812 c 3
 30 427.772174502 188.309570312 533.517578125 296.301757812 533.517578125 c 3
264.172851562 403.517578125 m 3
 229.221679688 403.517578125 200.833007812 353.747550783 200.833007812 293.620117188 c 3
 200.833007812 211.502228546 257.301757812 100.647460938 320.900390625 100.647460938 c 3
 369.005859375 100.647460938 388.080078125 171.177430881 388.080078125 230.234375 c 3
 388.080078125 348.100549735 302.4921875 403.517578125 264.172851562 403.517578125 c 3
EndSplineSet
Validated: 524289
EndChar

StartChar: p
Encoding: 112 112 15
Width: 613
VWidth: 1159
Flags: W
HStem: -295 112<271.02 357.411> -22 118.178<260.391 390.286> 372.656 85<29.3379 74.1483> 383.162 130.086<285.707 360.247>
VStem: 104.059 152.108<-177.161 -22.342 105.758 369.508> 422.828 150.487<165.33 307.318>
LayerCount: 2
Fore
SplineSet
104.05859375 58.3212890625 m 3xdc
 104.05859375 179.908203125 89.6103515625 350.12890625 83.1171875 370.575195312 c 1
 82 372 74.216796875 372.477539062 74.216796875 372.477539062 c 1
 72.9375 372.477539062 60.0810546875 373.184570312 29.337890625 372.65625 c 1
 11 457.65625 l 1xec
 79.6728515625 466.666015625 130.708984375 481.162109375 193.07421875 538.994140625 c 1
 232.893554688 527.977539062 249.166992188 516.903320312 255.166992188 471.2421875 c 1
 283.051757812 488.794921875 311.66015625 513.248046875 340.435546875 513.248046875 c 3
 471.485351562 513.248046875 573.315429688 374.662109375 573.315429688 279.297851562 c 3
 573.315429688 106.33984375 437.02734375 -22 303.956054688 -22 c 3
 295.709960938 -22 257.397460938 -19.115234375 259.955078125 -33.390625 c 1
 259.955078125 -84.5478515625 261.578125 -161.02734375 271 -178 c 1
 271.50390625 -179.21875 266.422851562 -182.788085938 273.416015625 -183 c 1
 304.0390625 -187.56640625 334.834960938 -188.5 363.604492188 -190 c 1
 360.270507812 -298 l 1
 298.814453125 -297 266.171875 -295 198.133789062 -295 c 1
 148.608398438 -295 79.23046875 -304 27.5107421875 -308 c 1
 18.6748046875 -203 l 1
 40.1441193803 -201.971261161 59.7170307959 -199.157087054 79 -197 c 1
 85 -196 86.3377255801 -192.054890574 88.7724609375 -182.92578125 c 1
 99.369140625 -140.18359375 104.05859375 -72.001953125 104.05859375 58.3212890625 c 3xdc
302.232421875 383.162109375 m 3xdc
 273.129882812 383.162109375 265.283203125 369.54296875 254.166992188 350.490234375 c 1
 256.166992188 111.580078125 l 1
 286.171875 102.649414062 316.704101562 96.177734375 355.703125 96.177734375 c 3
 406.986328125 96.177734375 422.828125 186.709960938 422.828125 203.84375 c 3
 422.828125 294.485351562 379.5 383.162109375 302.232421875 383.162109375 c 3xdc
EndSplineSet
Validated: 524321
EndChar

StartChar: q
Encoding: 113 113 16
Width: 578
VWidth: 1159
Flags: W
HStem: -302 112<544.881 606.634> -298 97<319.765 446.352> -20.0186 124.27<197.589 352.58> -11.3936 115.645<263.559 353.046> 388.803 124.179<227.871 336.099> 508 20G<482.48 525.742>
VStem: 35 168.579<180.287 330.558> 353.436 168.254<-184.357 -11.3936 104.513 290.9> 365.073 153.957<123.854 360.571>
LayerCount: 2
Fore
SplineSet
356.435546875 112.075195312 m 1x2a80
 360.026367188 186.178710938 364.03515625 236.9609375 365.073242188 312.877929688 c 1
 365.921875 318.25390625 356.046875 340.328125 357.7109375 342.251953125 c 1
 340.6171875 380.490234375 287.547851562 388.802734375 251.099609375 388.802734375 c 1
 224.591796875 388.802734375 203.579101562 318.791992188 203.579101562 288.671875 c 1
 203.579101562 206.178710938 240.036132812 104.250976562 310.282226562 104.250976562 c 1
 329.328125 104.250976562 344.728515625 103.359375 356.435546875 112.075195312 c 1x2a80
353.435546875 -11.3935546875 m 1x53
 325.25 -14.5029296875 296.436523438 -20.0185546875 261.946289062 -20.0185546875 c 1
 136.088867188 -20.0185546875 35 128.336914062 35 232.5 c 1
 35 358.818359375 152.399414062 512.981445312 329.396484375 512.981445312 c 1x2b
 404.357421875 512.981445312 428.991210938 488 433.229492188 488 c 1
 453.844726562 488 472.145507812 508.381835938 492.814453125 528 c 1
 560.31640625 487 l 1
 554.017578125 472.302734375 549.33984375 463.490234375 541.515625 438.021484375 c 1
 538.251953125 421.32421875 518.999023438 352.915039062 519.030273438 292.008789062 c 1x0680
 520.834960938 269.65234375 521.689453125 163.234375 521.689453125 121.868164062 c 1
 521.689453125 -67.4970703125 527.834960938 -137.168945312 533.435546875 -170.01171875 c 1
 534.725585938 -176.444335938 540.73828125 -183.997070312 543.61328125 -185 c 1
 570.819335938 -188.383789062 587.266601562 -190 612.134765625 -190 c 1
 606.633789062 -302 l 1x87
 559.3125 -300 518.138671875 -298 446.3515625 -298 c 1
 394.889648438 -298 324.563476562 -307 277.416015625 -312 c 1
 269.580078125 -206 l 1
 287.0859375 -205.25 302.641601562 -203.356445312 319.764648438 -201 c 1
 328.665039062 -200.772460938 340.061523438 -194.442382812 347.073242188 -190.208007812 c 1
 353.450195312 -177.137695312 353.435546875 -77.8505859375 353.435546875 -11.3935546875 c 1x53
EndSplineSet
Validated: 524321
EndChar

StartChar: r
Encoding: 114 114 17
Width: 505
VWidth: 1159
Flags: W
HStem: -19 21G<63.6049 87.5417> -9 96.209<279.516 371.739> 281.37 233.63<340.577 435.417> 376.204 90<69.0049 110.318> 513.994 20G<200.118 243.478>
VStem: 112.568 157.23<88.3724 331.587>
LayerCount: 2
Fore
SplineSet
269.798828125 223.887695312 m 0x24
 270.798828125 190.886495422 275.560546876 111.166454639 284.401367188 87.208984375 c 1
 288.392645077 86.2907997123 296.846265701 86.1460551564 309.381835938 85 c 0
 330.728515624 84.716796875 354.357421875 84 375.073242188 82 c 1
 371.739257812 -12 l 1
 327.927959736 -11 255.773963341 -9 205.635742188 -9 c 1x64
 162.176281441 -9 109.911609184 -15 65.171875 -19 c 1
 57.3369140625 81 l 1
 71.0615234375 80.857421875 92.810546875 85.2568359375 100.021484375 87 c 1
 102.229492188 88.3515625 105.578125 94.2734375002 105.993164062 108.938476562 c 1
 107.985351562 133.477189079 112.568359375 238.719068845 112.568359375 264.233398438 c 1
 112.568359375 280.017578125 112.735351562 344.833984376 109.481445312 362.899414062 c 1
 107.560546875 377.755859375 107.665039062 376.122070312 100.190429688 375.934570312 c 1
 87.8476562497 377.306640625 89.1806640617 376.204101562 69.0048828125 376.204101562 c 1
 45.4990234375 466.204101562 l 1
 109.321289062 470.189453125 170.037109375 490.815429688 230.19921875 533.994140625 c 1x9c
 256.755859375 524.994140625 283.53515625 518.994140625 283.53515625 488.994140625 c 1
 283.53515625 480.685546876 277.052734375 442.3046875 277.052734375 430.423828125 c 1
 352.347401472 503.139234432 339.309624103 502.865234375 391.999023438 515 c 1
 430.143483969 515 481.761648846 455.057531698 483.794921875 387.541992188 c 1
 484.389648438 350.05859375 468.270507812 277.03125 339.4921875 281.370117188 c 1
 330.41796875 324.49897204 331.94140625 342.680664062 313.91796875 342.680664062 c 1
 306.958007812 342.680664062 278 325 276.052734375 320.799804688 c 1
 272.227539062 293.658589526 269.243164063 236.910487129 269.798828125 223.887695312 c 0x24
EndSplineSet
Validated: 524321
EndChar

StartChar: s
Encoding: 115 115 18
Width: 487
VWidth: 1159
Flags: W
HStem: -20.04 118.208<193.728 284.651> 396.3 120.7<223.105 297.388>
VStem: 285.582 158.593<98.5712 159.123>
LayerCount: 2
Fore
SplineSet
118.201171875 202.206054688 m 1
 208.22265625 88.2255859375 225.521484375 98.16796875 259.12109375 98.16796875 c 1
 283.423828125 98.16796875 285.58203125 112.811523438 285.58203125 115.706054688 c 1
 285.58203125 166.427734375 249.413085938 162.508789062 211.766601562 182.959960938 c 0
 153.591796875 214.561523438 67.9111328125 242.984375 67.9111328125 369.059570312 c 1
 67.9111328125 443.4765625 147.947265625 517 247.852539062 517 c 1
 307.916015625 517 361.083007812 507.599609375 410.891601562 501.959960938 c 1
 407.563476562 489.358398438 428.025390625 412.076171875 435.555664062 354.169921875 c 1
 372.463867188 329.072265625 l 1
 343.463867188 340.11328125 277.08203125 396.299804688 252.291992188 396.299804688 c 1
 226.00390625 396.299804688 221.376953125 389.096679688 221.376953125 378.173828125 c 1
 221.376953125 362.305664062 232.283203125 347.97265625 301.46875 322.116210938 c 0
 386.395507812 290.376953125 444.174804688 235.451171875 444.174804688 145.956054688 c 1
 444.174804688 37.0419921875 324.659179688 -20.0400390625 227.774414062 -20.0400390625 c 1
 152.994140625 -20.0400390625 96.001953125 -4.51953125 41.48046875 11 c 1
 47.8798828125 32.7080078125 53.2802734375 56.740234375 53.2802734375 82.07421875 c 1
 53.2783203125 109.999023438 43.66796875 151.80859375 35 170.139648438 c 1
 118.201171875 202.206054688 l 1
EndSplineSet
Validated: 524321
EndChar

StartChar: t
Encoding: 116 116 19
Width: 433
VWidth: 1159
Flags: W
HStem: -23 137.264<208.338 327.507> 396.11 116.019<262.668 388.157>
VStem: 90.3975 166.816<114.792 400.313>
LayerCount: 2
Fore
SplineSet
25.7451171875 472.313476562 m 1
 80.646484375 518.14453125 140.655273438 574.734375 191.9375 618.396484375 c 1
 268.9375 603.36328125 l 1
 266.9375 573.28125 263.959960938 543.415039062 261.959960938 512.12890625 c 1
 311.163085938 515.333007812 355.743164062 515.100585938 399.16015625 519.5078125 c 1
 388.157226562 396.110351562 l 1
 345.509765625 398.19140625 304.461914062 401.231445312 258.360351562 404.313476562 c 1
 256.14453125 414.228515625 257.213867188 210.17578125 257.213867188 135.420898438 c 3
 257.213867188 118.798828125 263.498046875 114.263671875 292.716796875 114.263671875 c 3
 321.391601562 114.263671875 344.92578125 126.237304688 373.322265625 138.522460938 c 1
 373.322265625 138.522460938 412 62 417 52 c 1
 372.38671875 21.3212890625 312.102539062 -23 225.46484375 -23 c 3
 191.211914062 -23 90.3974609375 -7.439453125 90.3974609375 119.155273438 c 3
 90.3974609375 213.973632812 93.3974609375 312.90625 94.3974609375 400.313476562 c 1
 73.787109375 399.313476562 58.69140625 396.313476562 38.0810546875 396.313476562 c 1
 25.7451171875 472.313476562 l 1
EndSplineSet
Validated: 524321
EndChar

StartChar: u
Encoding: 117 117 20
Width: 608
VWidth: 1159
Flags: W
HStem: -33.0049 21G<403.153 428.943> -21.2842 139.08<210.762 341.814> 352.044 113.6<325.714 378.365> 496.47 39.5244G<192.658 246.535 502.373 549.024>
VStem: 85.5234 168.594<142.739 334.114> 373.438 158.739<126.119 357.327>
LayerCount: 2
Fore
SplineSet
309.130859375 465.643554688 m 5x7c
 387.049305977 478.788602941 470.75319554 497.104607077 533.993164062 516.469726562 c 5
 577.353515625 458.775390625 l 5
 548.499640625 421.507814402 532.177734375 197.588220013 532.177734375 151.521484375 c 1
 532.177734375 140.23234816 535.345645479 126.709261683 538.680664062 117.111328125 c 1
 540.825570312 118.641996109 545.122914062 119.408203125 548.021484375 121.559570312 c 1
 566.100351562 125.689453125 568.644726562 120.784179688 580.8515625 116.1640625 c 1
 603.190429688 20.7109375 l 1
 550.021104953 9.8038196875 488.896396174 -11.851443252 443.936523438 -27.103515625 c 0
 441.793945312 -28.1640625 434.297851562 -33.0048828125 423.588867188 -33.0048828125 c 1xbc
 382.716179688 -33.0048828125 381.644890625 12.1283880081 378.821289062 35.935546875 c 1
 338.036993071 11.654296875 286.463676019 -21.2841796875 236.413085938 -21.2841796875 c 1
 185.111382812 -21.2841796875 128.913737809 -1.1212435977 104.161132812 45.7158203125 c 1
 88.796875 76.8828125 86.169921875 110.45703125 85.5234375 163.190429688 c 1
 84.431640625 208.05476653 84.0889362058 297.172482227 85.3857421875 335.96875 c 4
 85.5323872225 347.514052745 80.8176046875 330.366210938 70.0234375 331.565429688 c 5
 56.1842265625 324.20703125 60.5074328125 332.160734375 46.1748046875 326.944335938 c 5
 12 448.654296875 l 5
 79.3952665275 459.267976562 158.658572513 500.8315625 226.657226562 535.994140625 c 5
 283.998046875 478.299804688 l 5
 260.02275 415.989568298 254.1171875 306.799157587 254.1171875 232.418945312 c 1
 254.1171875 160.18378125 271.307374588 117.795898438 338.151367188 117.795898438 c 1
 345.476265625 117.795898438 364.162359375 136.57328125 373.438476562 151.455078125 c 1
 373.83515625 213.756369687 377.2578125 350.844330198 381.165039062 357.755859375 c 5
 383.133789063 364.913625001 389.434195313 364.731445314 326.802734375 352.043945312 c 5
 309.130859375 465.643554688 l 5x7c
EndSplineSet
Validated: 524321
EndChar

StartChar: v
Encoding: 118 118 21
Width: 576
VWidth: 1159
Flags: W
HStem: -32.1377 21G<198.812 315.22> 431.5 91<15.3 48.8246> 510.5 20G<540.484 564.399>
VStem: 211.576 97.5215<-32.1377 39.4439>
LayerCount: 2
Fore
SplineSet
589 437.5 m 1xb0
 553.423828125 417.724609375 547.43359375 434.985351562 521.09375 396.43359375 c 0
 482.747070312 340.30859375 450.700195312 253.063476562 412.234375 190.818359375 c 0
 371.58203125 124.138671875 321.342773438 54.1728515625 309.09765625 -32.1376953125 c 1
 211.576171875 -32.1376953125 l 1
 186.047851562 116.543945312 136.129882812 296.287109375 61.2666015625 405.388671875 c 0
 56.306640625 412.567382812 52.341796875 414.603515625 49.5966796875 417.896484375 c 1
 33.0712890625 426.555664062 20.00390625 428.069335938 3.912109375 431.5 c 1
 16.2490234375 522.5 l 1xd0
 50.4931640625 518.5 101.821289062 513.5 139.567382812 513.5 c 1
 182.498046875 513.5 220.876953125 520.13671875 257.994140625 524.5 c 1
 272.331054688 419.565429688 l 1
 270.209960938 418.595703125 266.912109375 418 264.147460938 415.0703125 c 1
 259.177734375 410.013671875 257.912109375 389 263.465820312 373.509765625 c 1
 263.465820312 373.509765625 264.615234375 370.809570312 264.912109375 370 c 0
 269.000976562 358.856445312 294.85546875 290.201171875 314.182617188 254.420898438 c 1
 348.9453125 285.198242188 374.571289062 330.806640625 386.912109375 374 c 0
 388.912109375 381 387.912109375 382 387.268554688 384.307617188 c 1
 385.912109375 390 376.0625 413.7578125 362.029296875 422.939453125 c 1
 372.201171875 521.5 l 1
 390.155273438 519 421.821289062 513.5 435.567382812 513.5 c 1
 477.0234375 513.5 523.309570312 523.5 557.659179688 530.5 c 1
 589 437.5 l 1xb0
EndSplineSet
Validated: 524321
EndChar

StartChar: w
Encoding: 119 119 22
Width: 823
VWidth: 1159
Flags: W
HStem: 417 103<253.566 269.514 330 360.98 629.451 644.207> 429 91<9.79351 40.5256 546.648 553.562> 507.392 20G<795.768 817.829>
VStem: 196.625 99<-28.1638 63.3934> 503.275 87<-27.0097 61.7057>
LayerCount: 2
Fore
SplineSet
844 434.391601562 m 1x38
 815.379882812 419 787.913085938 398.946289062 769.35546875 367.209960938 c 0
 747.543945312 329.909179688 709.487304688 274.268554688 672.938476562 206.755859375 c 0
 627.1328125 120.659179688 594.018554688 63.322265625 590.275390625 -25.2001953125 c 1
 587.275390625 -31.7998046875 504.474609375 -29.400390625 503.275390625 -25.2001953125 c 1
 482.033203125 106.166992188 438.453125 141.016601562 404.731445312 220.879882812 c 1
 390.822265625 190.983398438 372.501953125 164.088867188 355.204101562 134.66015625 c 0
 327.305664062 85.9892578125 295.627929688 33.73828125 295.625 -26.591796875 c 1
 294.424804688 -30.19140625 197.224609375 -32.591796875 196.625 -26.591796875 c 1
 195.11328125 106.719726562 128.012695312 336.697265625 47.625 401.888671875 c 1
 46.3798828125 403 43.1904296875 405.4140625 42.3798828125 406 c 0
 24.3798828125 419 12.75390625 424.388671875 -3.6201171875 429 c 1
 9.8837890625 520 l 1x58
 47.0498046875 516.444335938 101.668945312 512 141.41015625 512 c 1
 209.211914062 512 210.7421875 514.666992188 268.616210938 520 c 1
 282.616210938 417 l 1x98
 272.20703125 416.865234375 257.174804688 413.794921875 253.379882812 412 c 0
 252.1015625 411.395507812 251.423828125 410.272460938 251.423828125 410.272460938 c 1
 251.379882812 410 250.328125 408.98828125 250.838867188 406.90234375 c 0
 256.1640625 385.15234375 276.184570312 296.284179688 307.076171875 246.935546875 c 1
 318.084960938 266.297851562 355.450195312 367.7421875 362.05859375 388.288085938 c 1
 363.379882812 392 362.379882812 399 359.379882812 402 c 1
 354.379882812 408 349.479492188 412.797851562 341.379882812 415 c 0
 334.446289062 416.884765625 333.69921875 417.48046875 323.830078125 419 c 1
 330 515 l 1
 356.110351562 513.260742188 391.177734375 512.391601562 421.397460938 512.391601562 c 1
 465.806640625 512.391601562 512.669921875 520.391601562 553.4609375 526.391601562 c 1
 569.295898438 424.391601562 l 1
 559.54296875 422.533203125 550.379882812 421 546.4609375 419.247070312 c 1
 544.379882812 418.607421875 543.379882812 416.783203125 543.379882812 414 c 1
 543.379882812 409.662109375 543.379882812 404.236328125 544.379882812 398 c 1
 544.864257812 390.467773438 568.9921875 295.633789062 588.1796875 256.982421875 c 1
 617.379882812 302 626.379882812 310 641.235351562 376.516601562 c 0
 643.411132812 386.260742188 644.985351562 395.5 644.985351562 402.306640625 c 1
 644.985351562 404.534179688 637.548828125 412.721679688 605.603515625 418.391601562 c 1
 631.110351562 520.391601562 l 1
 655.53515625 516.69921875 686.794921875 512.391601562 704.65234375 512.391601562 c 1
 741.026367188 512.391601562 780.875976562 521.21484375 810.659179688 527.391601562 c 1
 844 434.391601562 l 1x38
EndSplineSet
Validated: 524321
EndChar

StartChar: x
Encoding: 120 120 23
Width: 630
VWidth: 1159
Flags: W
HStem: -18 97<35.3062 80.6895 243.129 260.422> -12 85.7451<316.402 347.709 542.723 602.981> 410 102<39.3691 116.771> 503.255 20G<303.45 319.786 579.224 594.365>
LayerCount: 2
Fore
SplineSet
28.80859375 79 m 1x80
 55.0634765625 92.6845703125 82 99 91.7802734375 107.0078125 c 1
 98 112 234.841796875 240.204101562 234.841796875 240.204101562 c 5
 233 242 147 354 145.3515625 356.579101562 c 1
 107.747070312 412.963867188 66.7041015625 410.420898438 39.369140625 410 c 1
 39.369140625 517 l 1
 82.97265625 514.5 150.750976562 512 197.290039062 512 c 0xa0
 234.119140625 512 289.405273438 516.407226562 317.495117188 523.254882812 c 1x10
 329.6640625 417 l 1
 330.743952361 417 319.517990513 416.611328125 312 418 c 1
 310 418 309 417 311 415 c 1
 316.303152713 409.242369466 347.631140032 359.5226742 352.295898438 354.047851562 c 1
 386.842773438 396.818359375 l 1
 390.36328125 403.401367188 387.974609375 407.05859375 390.453125 421.698242188 c 1
 380 421 374 417 361.349609375 416 c 1
 374.685546875 515 l 1
 419.096679688 512 445.248046875 512 489.658203125 512 c 0
 523.46484375 512 566.521484375 512 591.92578125 519 c 1
 601.927734375 437 l 1
 583.649414062 423.087890625 545.349916964 400.995910849 538.4296875 394.9296875 c 0
 493.212890625 355.29296875 450.500976562 312.35546875 405.264648438 272.73046875 c 1
 446.420898438 219.875 496.362021773 147.630440078 538.477539062 99.4169921875 c 0
 558.3203125 76.701171875 544.443359375 84.4619140625 616 72 c 1
 602.663085938 -17 l 1
 564.7421875 -13 502.754882812 -9 460.295898438 -9 c 0
 417.271484375 -9 362.282226562 -12 316.634765625 -16 c 1
 306.6328125 74 l 1
 309.650390625 68.3759765625 334.629882812 83.8505859375 348.633789062 77.0205078125 c 1
 348.633789062 77.5615234375 342.252929688 88.6416015625 339.998046875 92.6064453125 c 1
 333.795898438 95.09765625 291.548828125 151.703125 287.481445312 153.8828125 c 1
 282.822265625 149.51171875 263.262695312 116.618164062 255.854492188 110.188476562 c 1
 250.168945312 100.514648438 242.598632812 80.5166015625 242.598632812 73.7451171875 c 1x60
 254 73 260 79 271.712890625 79 c 1
 259.543945312 -18 l 1x80
 222.014648438 -16 187.6796875 -12 148.658203125 -12 c 0x40
 112.217773438 -12 68.7314453125 -16 35.8115234375 -18 c 1
 28.80859375 79 l 1x80
EndSplineSet
Validated: 524321
EndChar

StartChar: y
Encoding: 121 121 24
Width: 584
VWidth: 1159
Flags: W
HStem: 427.1 94<17.0393 61.1559 253.054 285.928 370.129 387.292 534.4 589.909>
LayerCount: 2
Fore
SplineSet
207.1953125 -305.108398438 m 1
 169.968397797 -305.108398438 178.599049053 -302.900390625 105.22265625 -302.900390625 c 1
 61.2136314655 -302.900390625 43.4346376616 -305.108398438 6.501953125 -306.211914062 c 1
 7.6689453125 -283.026367188 11.00390625 -251.953125 2 -216.663085938 c 1
 122.717773438 -176.139648438 145.188758026 -98.628593206 185.506835938 8.25 c 1
 168.134947578 138.595658885 70 382 63 404 c 1
 62 408 53 416 38.0751953125 420.267578125 c 1
 24.2088477109 423.962479588 14.4053476231 426.510649181 2.7646484375 427.099609375 c 1
 17.267578125 521.099609375 l 1
 57.2005690588 517.099609375 114.790641879 512.099609375 158.223632812 512.099609375 c 1
 207.88493731 512.099609375 243.458570515 516.141601562 285.681640625 522.204101562 c 1
 301.3515625 426.891601562 l 1
 296.918121049 426.891601562 285 428 285 428 c 1
 280 429 l 1
 275 430 267 434 259.336914062 431.642578125 c 1
 236.603129977 385.446239706 249.737753654 261.20621625 302.23046875 200.616210938 c 1
 344.094004128 251.236946308 386.09974358 347.184852665 399.057617188 394.390625 c 0
 400.261163256 398.775165504 398.520507812 402.266757813 398.7421875 398.864257812 c 1
 389.204906908 406.550226987 344.424123803 423.732685811 346.985351562 425.099609375 c 1
 370.491210938 524.724609375 l 1
 394.313386871 519.674804688 441.90973169 512.099609375 463.223632812 512.099609375 c 1
 509.931297508 512.099609375 553.599741343 519.359375 589.619140625 526.620117188 c 1
 607.45703125 430.099609375 l 1
 556.693134015 423.615234375 538.355377906 417.239385036 529.473632812 400.081054688 c 0
 474.329915052 293.550849644 375.201649208 150.692802964 310.333007812 26.1337890625 c 0
 268.429368956 -54.3284469645 259.53125 -176.828551881 207.1953125 -305.108398438 c 1
EndSplineSet
Validated: 524321
EndChar

StartChar: z
Encoding: 122 122 25
Width: 604
VWidth: 1159
Flags: W
HStem: 506.253 20G<510.238 539.587>
VStem: 476.806 89<151.756 182.771>
LayerCount: 2
Fore
SplineSet
448.28125 -9.7275390625 m 1
 448.28125 -10.8193359375 231.102539062 -10.9423828125 231.088867188 -9.673828125 c 1
 148.666992188 -9.0185546875 77.98828125 -18.3564453125 61.7119140625 -35.9052734375 c 1
 40.7080078125 52.509765625 l 1
 137.640375316 146.775050947 228.988173976 295.677389867 281 403 c 1
 281 403 273.499257052 402.852539062 276.4921875 402.852539062 c 1
 239.9296875 402.852539062 207.131101566 402.569329522 167.7109375 398.639648438 c 0
 130.573242188 394.9375 131.454101562 372.400390625 120.696289062 354.30078125 c 1
 20.005859375 388.083007812 l 1
 23 396 73.01953125 561.940429688 75.642578125 557.0859375 c 1
 117.079101562 526.262695312 115.00390625 511.852539062 294.870117188 511.852539062 c 1
 420.126953125 511.852539062 492.267578125 507.9921875 528.208007812 526.252929688 c 1
 564.208007812 462.9765625 l 1
 476.651367188 352.130859375 361.038085938 201.21484375 318.306640625 92.234375 c 1
 327.080078125 92.234375 364.940429688 95.5 373.712890625 95.5 c 1
 399.0625 96.708984375 415.530273438 98.041015625 428.83984375 107.0859375 c 1
 440.609375 114.908203125 442.36177543 124.452121636 454.504882812 150.201171875 c 0
 461.290039062 164.588867188 469.969726562 191.048828125 476.805664062 211.633789062 c 1
 565.805664062 180.307617188 l 1
 564 174 522 -31 520.208007812 -41.9619140625 c 5
 499.546875 -29.0029296875 488.130859375 -9.7275390625 448.28125 -9.7275390625 c 1
EndSplineSet
Validated: 524321
EndChar

StartChar: A
Encoding: 65 65 26
Width: 725
VWidth: 1159
Flags: W
HStem: -32 119<256.547 315.285> -21 106<29.3114 97.3968 632.252 702.264> 157.552 104.448<304 371.752> 685.393 20G<324.275 431.904>
VStem: 324.275 107.104<589.477 704.902>
LayerCount: 2
Fore
SplineSet
304 262 m 1x38
 319.20703125 259.869140625 357.739257812 262.71875 372 263 c 1
 368.467773438 272.708984375 339.133789062 337.9375 333.5859375 343 c 1
 324.705078125 332.076171875 308.872070312 272.404296875 304 262 c 1x38
404.801757812 -32 m 5xb8
 404.801757812 -32 381.801757812 57 377.801757812 72 c 1
 378.525390625 75.8046875 427.975585938 91.779296875 425.439453125 97 c 0
 413.490234375 121.595703125 410.73046875 133.350585938 406 148 c 1
 348.075195312 159.674804688 338.028320312 165.586914062 266.368164062 157.551757812 c 1
 261.44140625 140.932617188 251.534179688 134.166992188 251.90234375 117 c 0
 252.5 89.154296875 299.07421875 103.811523438 321.873046875 87 c 1
 314.873046875 -32 l 5xb8
 233.69921875 -14.48828125 111.3046875 -15 30 -21 c 5
 28 -2.892578125 21 46.5537109375 16 85 c 1x78
 76.7451171875 100 100.216796875 98.4072265625 109.868164062 120 c 0
 194.494140625 309.333007812 256.036132812 473.606445312 317.18359375 624.994140625 c 0
 330.572265625 658.141601562 324.368164062 667.541992188 324.275390625 704.90234375 c 1
 431.37890625 705.392578125 l 1
 432.4296875 673.306640625 428.8125 661.114257812 438.37890625 625.392578125 c 0
 490.7578125 429.802734375 560.377929688 301.841796875 632.147460938 100 c 0
 639.428710938 79.5224609375 678.341796875 80.125 708.969726562 80 c 1
 707.969726562 61.837890625 703.969726562 11.8916015625 701.969726562 -20 c 5
 599.213867188 -17 475.056640625 -12.6669921875 404.801757812 -32 c 5xb8
EndSplineSet
Validated: 524321
EndChar

StartChar: B
Encoding: 66 66 27
Width: 680
VWidth: 1159
Flags: W
HStem: -16 109.264<55.3144 131.751 319.638 420.594> 316 93.2578<320.638 393.111> 590.092 117.908<322.743 380.159>
VStem: 135.827 183.787<94.1783 316 409.258 567.919> 400.179 186.821<435.558 571.449> 445.161 188.839<111.871 277.643>
LayerCount: 2
Fore
SplineSet
47.828125 93 m 1xf4
 65 91 129.986900134 92.1810262784 131.885742188 98.982421875 c 0
 134.336914062 107.762188234 135.827148438 201.104979601 135.827148438 298 c 1
 135.827148438 431.836502359 125.426209739 580.914777484 119.828125 567.404296875 c 0
 116.3515625 559.013921875 121.152505063 586.520273246 117.827148438 587 c 0
 100.51158125 589.498 54.5332031249 595.6 38.828125 598 c 1
 58.828125 710 l 1
 92.399525 705 101.327385938 698 172.413085938 698 c 3
 237.420104313 698 288.65926236 708 351 708 c 7
 509.883210938 708 587 614.045 587 516 c 3xf8
 587 448.403637853 558.857734375 420.278759376 509.206054688 380.26953125 c 1
 560.717773438 374.077217307 634 277.823616188 634 193 c 3
 634 67.3949494949 513.31 -16 357 -16 c 3
 293.262621993 -16 249.76830615 -11 178.413085938 -11 c 3
 98.223885938 -11 89.206525 -14 55.828125 -16 c 1
 47.828125 93 l 1xf4
363.413085938 411.2578125 m 0
 396.554085938 421.095116706 400.178710938 437.904951914 400.178710938 471.368164062 c 3
 400.178710938 536.372757812 386.897945662 590.091796875 343.413085938 590.091796875 c 3
 334.589678581 590.091796875 323.336416547 588.49938048 322.96484375 588.400390625 c 0
 320.112953125 587.640625 319.936352032 575.846320242 319.614257812 563.599609375 c 0
 318.065429688 504.70985284 319.670898438 443.602512954 320.637695312 409.2578125 c 1
 351.041726448 409.2578125 351.583315884 407.746360018 363.413085938 411.2578125 c 0
349.68359375 319.73046875 m 0
 326.532960723 319.739395027 343.769573585 316 317.637695312 316 c 1
 318.910644532 236.348344982 317.896720842 148.58333639 319.637695312 114.883789062 c 0
 320.294325709 102.173581363 324.242269992 93.4553999095 329 93.263671875 c 0
 334.043685163 92.8837633882 362.05451613 94.177734375 385.68359375 94.177734375 c 3
 420.534098002 94.177734375 445.161132812 126.001657191 445.161132812 195.005859375 c 3xf4
 445.161132812 251.870586472 422.838695033 319.702262061 349.68359375 319.73046875 c 0
EndSplineSet
Validated: 524321
EndChar

StartChar: C
Encoding: 67 67 28
Width: 724
VWidth: 1159
Flags: W
HStem: -29 122.689<364.39 511.851> 593.738 118.212<332.265 475.84>
VStem: 34.0127 210.698<236.023 455.986>
LayerCount: 2
Fore
SplineSet
34.0126953125 326 m 3
 34.0126953125 511.994140625 160.879882812 711.950195312 413.784179688 711.950195312 c 3
 486.83984375 711.950195312 521.462890625 703.599609375 583.997070312 680.732421875 c 0
 615.319335938 670.361328125 591.111328125 703.532226562 612.124023438 699.950195312 c 1
 691.384765625 661.080078125 l 1
 668.846679688 614.625976562 671.32421875 598.703125 672.833007812 541.356445312 c 0
 674.559570312 483.98046875 654.57421875 469.16015625 575.6015625 468.159179688 c 1
 535.581054688 480.237304688 525.891601562 518.82421875 524.201171875 528.172851562 c 0
 482.201171875 575.44140625 450.3984375 593.73828125 398.813476562 593.73828125 c 3
 307.287109375 593.73828125 244.7109375 501.599609375 244.7109375 358.55078125 c 3
 244.7109375 192.84375 337.952148438 93.689453125 441.90234375 93.689453125 c 3
 505.665039062 93.689453125 576.3984375 156.599609375 621.276367188 219.999023438 c 1
 708 196.544921875 l 1
 700.865234375 137.596679688 678.934570312 92.4189453125 660.784179688 38.7548828125 c 1
 591.5390625 3.43359375 525.598632812 -29 429.80859375 -29 c 3
 195.484375 -29 34.0126953125 128.474609375 34.0126953125 326 c 3
EndSplineSet
Validated: 524321
EndChar

StartChar: D
Encoding: 68 68 29
Width: 788
VWidth: 1159
Flags: W
HStem: -23 117<44.5812 123.395> -17 127.181<327.971 466.65> 590.819 114.181<322.331 448.382>
VStem: 583.136 189.835<226.751 450.211>
LayerCount: 2
Fore
SplineSet
379.81640625 110.180664062 m 3x70
 489.092773438 110.180664062 583.135742188 199.82421875 583.135742188 317.540039062 c 3
 583.135742188 495.713867188 498.333007812 590.819335938 335.620117188 590.819335938 c 3
 321.732421875 590.819335938 326.173828125 590.50390625 322.1484375 592.981445312 c 0
 318.26953125 591.346679688 320.34375 570.461914062 319.6484375 569.981445312 c 0
 313.842773438 424.072265625 307.860351562 245.206054688 327.970703125 130.390625 c 0
 330.4140625 119.50390625 325.611328125 119.658203125 338.970703125 111.19921875 c 0
 350.612304688 110.866210938 365.188476562 110.180664062 379.81640625 110.180664062 c 3x70
41 699 m 1
 96.97265625 695 120.012695312 691 173.985351562 691 c 5
 257.985351562 691 300.985351562 705 381.985351562 705 c 3
 527.622070312 705 772.970703125 601.838867188 772.970703125 342 c 3
 772.970703125 68.73046875 552.71875 -17 359.985351562 -17 c 3x70
 291.985351562 -17 254.985351562 -10 181.985351562 -10 c 3
 137.40234375 -10 99.6953125 -14 45 -23 c 1
 38 94 l 1xb0
 65.3857421875 100.331054688 122.375976562 102.563476562 125.022460938 114.068359375 c 0
 138.043945312 271.8671875 126.213867188 511.619140625 113.638671875 574.748046875 c 0
 106.184570312 578.034179688 45.5859375 580.30078125 37 579 c 1
 41 699 l 1
EndSplineSet
Validated: 524321
EndChar

StartChar: E
Encoding: 69 69 30
Width: 666
VWidth: 1159
Flags: W
HStem: -11.54 119.079<324.724 480.715> 285 108<320.854 434.365> 594.448 107.729<57.3213 116.693>
VStem: 449.601 101.33<230.751 280.136> 492.606 92<507.154 556.543>
LayerCount: 2
Fore
SplineSet
57.3212890625 702.177734375 m 1xf0
 193.669921875 686.177734375 525.810546874 690.177734375 574.293945312 708.177734375 c 1
 640.295898441 657.210331037 587.710937501 656.369973081 584.606445312 507.154296875 c 1
 492.606445312 499.154296875 l 1xe8
 489.424814465 521.888015159 479.822403852 556.422036751 459 570 c 0
 440.481584182 580.541529091 339.548168786 598.101433755 331.848632812 578.73046875 c 0
 330.697265626 576.12109375 326.215532362 578.328993335 325.84765625 565.200195312 c 0
 324.469726563 511.332177547 322.154296876 444.178778039 320.854492188 393 c 1
 337.02734375 397.111328125 423.166140984 395.116432106 424.94921875 396.123046875 c 0
 435.1328125 401.872070312 447.421875 458.330078124 454.763671875 465.18359375 c 1
 557.731445312 444.184570312 l 1
 537.731445312 370.540928574 536.930664062 309.327245832 550.930664062 230.750976562 c 1
 449.600585938 201.751953125 l 1
 428.708007812 244.044923616 439.341497563 282.067343294 426.587890625 281.459960938 c 0
 411.313476563 280.650390623 332.00390625 282.908203125 318.854492188 285 c 1
 318.654296875 224.713132733 318.559954037 166.137579531 321.39453125 127.599609375 c 0
 322.363488573 113.170562855 330.779672074 112.129895229 338.71875 111.35546875 c 0
 361.995013234 109.084958905 381.921537243 108.446099901 407.311523438 107.538964892 c 0
 465.586006723 105.456930521 508.911269275 143.620127138 550 199.31640625 c 1
 641 177.31640625 l 1
 621.768554688 95.587890625 609.216796874 65.1083984375 593.293945312 -11.5400390625 c 1
 413.494140624 -17.81640625 208.752929687 10.3818359375 69.3212890625 -37 c 1
 40.3212890625 68 l 1
 73.3330078125 86.1005859375 101.009369088 96.7382823211 119.489257812 113.534179688 c 1
 144.517578125 175.607469433 133.230243629 563.726113989 122.813476562 572.471679688 c 0
 115.159179688 578.897968743 78.2255859379 579.753007808 42.3212890625 594.448242188 c 1
 57.3212890625 702.177734375 l 1xf0
EndSplineSet
Validated: 524321
EndChar

StartChar: F
Encoding: 70 70 31
Width: 614
VWidth: 1159
Flags: W
HStem: -26 113<59.3857 111.86> 280.8 109.178<310.174 403.512>
VStem: 473.158 95<488.411 533.647>
LayerCount: 2
Fore
SplineSet
428.557617188 -29 m 1
 293.923828125 -5.2451171875 186.131835938 -1.595703125 59.3857421875 -26 c 1
 30.3857421875 87 l 1
 67.8046875 84 120.615234375 104.15234375 121.30078125 117.1484375 c 1
 125.7890625 187.176757812 127.234375 510.771484375 117.661132812 583.833984375 c 0
 117.915039062 583.861328125 65.029296875 583.829101562 22.3857421875 601 c 1
 39.3857421875 704 l 1
 159.327148438 693 498.790039062 688.708007812 536.365234375 728.594726562 c 1
 610.998046875 702.159179688 578.158203125 661.279296875 568.158203125 488.411132812 c 1
 473.158203125 480.411132812 l 1
 466.231445312 511.260742188 437.52734375 553.588867188 447.118164062 555.338867188 c 0
 416.294921875 580.342773438 357.272460938 602.278320312 309.551757812 583.276367188 c 0
 311.731445312 581.220703125 310.940429688 561.53515625 311.551757812 567.276367188 c 0
 306.705078125 505.912109375 309.373046875 446.288085938 309.918945312 389.977539062 c 1
 348.74609375 392.498046875 389.037109375 388.260742188 391.779296875 388.467773438 c 0
 407.5859375 391.916015625 415.729492188 425.766601562 427.958007812 454.383789062 c 1
 536.55859375 433.221679688 l 1
 514.55859375 359.715820312 518.358398438 300.41796875 533.358398438 221.014648438 c 1
 423.434570312 193.014648438 l 1
 397.677734375 241.834960938 410.110351562 273.690429688 391.779296875 274.715820312 c 0
 383.676757812 279.936523438 331.0390625 278.869140625 310.173828125 280.799804688 c 1
 315.4453125 213.512695312 314.763671875 154.779296875 325.557617188 110.1484375 c 0
 339.86328125 78.439453125 360.708984375 102.350585938 447.557617188 96 c 1
 428.557617188 -29 l 1
EndSplineSet
Validated: 524321
EndChar

StartChar: G
Encoding: 71 71 32
Width: 764
VWidth: 1159
Flags: W
HStem: -32 113<404.863 502.651> 277 85<701.869 736> 600.126 111.874<337.356 517.503> 678 20G<574.899 659.399>
VStem: 28.2275 213.675<259.933 448.141> 506.812 185.188<92.3314 254.485>
LayerCount: 2
Fore
SplineSet
28.2275390625 335 m 3xec
 28.2275390625 542.535545346 226.217773438 712 432.399414062 712 c 1xec
 535.059570312 712 563.469808311 685.177237442 577.797851562 683.091796875 c 0
 583.963867188 682.194335938 574.399414062 697.956054688 575.399414062 698 c 1xdc
 659.399414062 695 l 1
 677.59765625 508.01171875 l 1
 582.59765625 487.01171875 l 1
 539.885742188 563.028320312 524.772460937 600.125976562 431.530273438 600.125976562 c 3
 267.690429688 600.125976562 241.90234375 457.85354644 241.90234375 374 c 1
 241.90234375 198.650228184 373.100773035 81 493 81 c 1
 496.620056206 81 500.096637175 85.6165355361 501.916015625 96.5673828125 c 0
 503.094410885 103.660149311 503.608666591 112.006503309 504.228515625 123.251953125 c 0
 505.693008132 149.609113942 509.034819225 198.457746977 506.8125 247.5703125 c 0
 506.643554688 251.333984375 504.038968403 259.935212593 475.228515625 259 c 0
 464.099406737 258.638739354 452.429507902 260.908203125 439.228515625 259 c 1
 446.228515625 365 l 1
 560.802660112 353 669.479087452 353 736 362 c 1
 745 277 l 1
 725.260216346 273.2 702.85796614 261.196985487 700.908203125 255.5703125 c 0
 693.224609375 233.562461845 691.340050714 137.215311279 692 122.711914062 c 0
 692.092887756 120.655198361 700.535714286 96.3354936081 723 87 c 1
 715 19 l 1
 629.808080808 3.2857142857 507.410333807 -32 437.228515625 -32 c 1
 217.472960069 -32 28.2275390625 124.793600679 28.2275390625 335 c 3xec
EndSplineSet
Validated: 524321
EndChar

StartChar: H
Encoding: 72 72 33
Width: 888
VWidth: 1159
Flags: W
HStem: -20 118<324.623 400.179 518.939 581.1 791.272 838.781> 275.384 118.141<314.531 590.8> 599 106<503.999 581.099> 692 20G<757.964 829.59>
VStem: 592.8 190.842<392.914 596.802>
LayerCount: 2
Fore
SplineSet
57 706 m 1xd8
 169.217002067 690.028320312 269.015336211 686.7578125 397.771484375 703 c 1
 404.771484375 593 l 5
 385 594 344 590 325.365234375 588.828125 c 1
 321.935546875 556.50404562 314.254557292 469.005732209 312.6796875 393.524414062 c 1
 590.799804688 392.431640625 l 1
 591.346679687 449.034552007 594 594.075976885 572.583007812 596.662109375 c 0
 560.425803287 598.173236981 498.861918886 599.175907278 489.999023438 599 c 1
 503.999023438 705 l 1xe8
 624.024414062 691.044921875 690.156822467 689.514648438 825.771484375 712 c 1
 846.771484375 602 l 1
 833 602 783.875731982 597.04133137 783.641601562 592.83984375 c 0
 776.712125807 471.458345933 762.000000002 170.332658572 791.1875 102.154296875 c 0
 792.364916475 99.3367386191 834 98 850.771484375 97 c 1
 850.771484375 97 837.771484375 -6 838.771484375 -20 c 1
 732.109146713 -12.1142578125 635.115906555 -7.9921875 519.999023438 -21 c 1
 515.999023438 1.75 504.999023438 51.8330078125 497.999023438 92 c 1
 526 94 580.220611054 99.9740134388 581.18359375 105.154296875 c 0
 592.874414061 165.916075558 592.307421874 218.544730326 592.799804688 276.475585938 c 1
 315.771484375 275.383789062 l 1
 312.86328125 219.447377408 305.740757384 150.098773964 318.6796875 107.068359375 c 0
 323.74609375 89.6186147837 398 96 411.771484375 98 c 1
 411.771484375 98 400.771484375 -6 399.771484375 -20 c 1
 269.481161794 -7.7998046875 177.394184728 -8.8173828125 66 -18 c 1
 66 -18 48 86 46 104 c 1
 86 102 112 108 116 122 c 0
 142.3587737 211.921567897 152 511.879693706 110.400390625 584.293945312 c 0
 106.405796739 591.428006045 49.9844155844 602.023328993 49 593 c 1
 57 706 l 1xd8
EndSplineSet
Validated: 524321
EndChar

StartChar: I
Encoding: 73 73 34
Width: 443
VWidth: 1159
Flags: W
HStem: -21 21G<44.3071 99.4288> 590.5 116.5<51.8281 117.23 333.024 402>
LayerCount: 2
Fore
SplineSet
51.828125 711 m 1
 170.004936083 683 276.003231114 688 402 707 c 1
 407.5 590.5 l 1
 370.17146931 586.945646484 332.172766724 587 329.939453125 575.223632812 c 0
 309.381282089 458.953437706 308.221860379 266.360252103 318.215820312 99.9384765625 c 4
 318.60971292 93.3930845954 381.873484198 100.084746843 402.19921875 96 c 5
 398.19921875 -18 l 5
 278.406852005 -7.68732 152.029485449 -4.07084 46.828125 -21 c 5
 31.828125 98 l 5
 57.1605409532 97.6174685595 125.842725521 94.1324336606 126.666015625 102.078125 c 4
 139.878960928 229.874391995 144.750959263 457.983511866 122.711914062 564.723632812 c 0
 119.77044844 578 89.8370435129 585.487655044 45.828125 588 c 1
 51.828125 711 l 1
EndSplineSet
Validated: 524321
EndChar

StartChar: J
Encoding: 74 74 35
Width: 402
VWidth: 1356
Flags: W
HStem: 693 20G<31.9637 371.129>
VStem: 128.102 169.898<-50.0213 440.953>
LayerCount: 2
Fore
SplineSet
105.940429688 589.66796875 m 0
 99.9937959639 594.049436243 43.6135553727 594.3203125 22.828125 595 c 1
 33.828125 713 l 1
 161.956970414 680 244.321311475 694 370 713 c 1
 377 589 l 1
 368.160788144 590.665039062 313.622618958 597.359717519 312.454101562 591.576171875 c 0
 291.711280284 488.910131849 297.909179688 374.422955378 298 232 c 1
 298 91.0888888889 309.197265625 38.9170035899 307.395507812 -10 c 1
 307.395507812 -80.528266129 211.181633749 -155.407080955 116 -218 c 0
 95.619290748 -232.191999662 79.3359375 -239.555721507 63.0390625 -253.389648438 c 1
 60 -247 -4.150390625 -158.997070312 -4.150390625 -158.997070312 c 1
 19.681640625 -145.31499566 40.3415103242 -133.730973579 58.7802734375 -120.62890625 c 0
 65.498046875 -116.141690341 72.3701453053 -111.529789695 77.623046875 -105.62890625 c 0
 107.73969184 -67.1494140625 125.950195312 -9.97796941208 128.1015625 106 c 1
 128.626953125 133.948093344 115.356445313 582.73026781 105.940429688 589.66796875 c 0
EndSplineSet
Validated: 524321
EndChar

StartChar: K
Encoding: 75 75 36
Width: 747
VWidth: 1159
Flags: W
HStem: -27.0029 96<309.45 346.42 413.913 448.837> 600 103<312.174 362.772> 607 96<45 107.921 413.8 453.557> 608 103<622.795 669.471>
VStem: 114.238 182.281<396.044 588.636>
LayerCount: 2
Fore
SplineSet
413.799804688 702 m 1xc8
 485.405273438 690.307692307 592.94140625 693.076923077 667.772460938 711 c 1
 692.772460938 608 l 1x98
 666.241210938 606.631835938 603.880543389 578.672666765 601.255859375 575.595703125 c 0
 554.143736011 520.36532498 480.921910335 446.205115995 427.479492188 383.127929688 c 1
 681.26171875 106.16015625 l 1
 696.232421875 95.15625 718.126953125 81.552734375 743.6328125 58.9267578125 c 1
 730.6328125 -22.0732421875 l 1
 697.086546024 -17.6591796875 655.851198966 -13.0029296875 618.784179688 -13.0029296875 c 0
 555.919776458 -13.0029296875 469.974504849 -22.0029296875 415.006835938 -27.0029296875 c 1
 400.006835938 68.9970703125 l 1
 408 69 440 70 450.31640625 71.400390625 c 1
 442.628572224 77.962370959 348.545333322 197.740983829 296.51953125 259.108398438 c 1
 296.51953125 206.923444916 301.075825374 128.009416193 304.971679688 95.7060546875 c 0
 306.396820654 83.8891744592 341.636638056 73.76953125 357.571289062 72 c 1
 345.571289062 -26 l 1
 247.939367964 -11 163.216719108 -8 33 -20 c 1
 24 85 l 1
 57.2050403399 88.3699098245 101.975817473 87.0040554728 104 99 c 0
 130.092408174 253.631846152 117.954496628 551.36979169 114.23828125 581.5703125 c 0
 113.984304109 583.63430534 84.436523438 605.349609375 26 607 c 1
 45 703 l 1xa8
 161 685 252.147460938 689 362.772460938 703 c 1
 373.772460938 600 l 1
 356 597 324 592.000000001 309.94921875 591.477539062 c 1
 302.151367188 531.163287912 296.004882812 451.654331295 296.51953125 390.66015625 c 1
 338.657255743 447.009866513 405.167717619 524.750892437 449.57421875 583.61328125 c 0
 454.336464182 589.925806107 456.008854332 593.934016462 456 594 c 0
 455.1937349 600.008383448 415.57568917 602.327930224 408.799804688 604 c 1
 413.799804688 702 l 1xc8
EndSplineSet
Validated: 524321
EndChar

StartChar: L
Encoding: 76 76 37
Width: 669
VWidth: 1159
Flags: W
HStem: -20 122<36.7414 111.952> -11 128.086<304.314 519.668> 688 20G<32.9125 91.7273>
VStem: 114.486 188.772<117.049 573.36> 552.947 105<176.187 234.373>
LayerCount: 2
Fore
SplineSet
383.659179688 703 m 1xb8
 393.659179688 588 l 1
 353.98390625 588.05359375 303.455693337 593.002713074 304.453125 552.65625 c 0
 305.589078125 506.706544882 304.2421875 213.330777413 303.258789062 196.154296875 c 1
 302.809565221 166.460984375 303.793240613 117.126532084 308.266601562 117.0859375 c 1
 362.413580454 116.885742188 512 117 516.047851562 126.087890625 c 0
 520.813297735 136.786863386 544 219 552.947265625 255.373046875 c 1
 657.947265625 234.373046875 l 1
 663.991789062 139.81484375 639.7164375 174.86171875 605.516601562 -37.740234375 c 1
 567.801532003 -26.4013647432 539.265032777 -11 490 -11 c 0
 478.334435096 -11 401.536132812 -11 313.072265625 -11 c 0x78
 66.244665625 -11 88.245904688 -17 37.4873046875 -20 c 1
 24.4873046875 102 l 1
 64.6462765625 103.620370313 110.643940456 104.38752259 111.41796875 113.6015625 c 0
 112.26953125 123.738570313 115.277575232 208.549371671 114.486328125 303 c 0
 113.39453125 433.32704949 105.008660421 559.727836933 102.833984375 574.116210938 c 0
 102.406521897 576.944443681 71.263546875 580.852921875 24.4873046875 581 c 1
 34.4873046875 708 l 1
 148.967328125 682 282.140179688 687 383.659179688 703 c 1xb8
EndSplineSet
Validated: 524321
EndChar

StartChar: M
Encoding: 77 77 38
Width: 984
VWidth: 1159
Flags: W
HStem: -24 119<284.511 352.407> 589 126<43.2513 136.418> 589 119<856.176 951.703>
VStem: 433.019 109.797<-3.79883 117.846> 687.814 165.547<581.766 684>
LayerCount: 2
Fore
SplineSet
956 -22 m 1xb8
 847.350988051 -7 734.637350644 -4 605.225585938 -24 c 1
 589.225585938 92 l 1
 629.309570312 90.5 690 101 692.225585938 115.221679688 c 0
 705.27418978 198.603346084 699.223632812 329.978598598 684.208984375 401.5 c 1
 635.651130328 305.371312425 583.696020602 172.888900871 555.116210938 94.4296875 c 0
 545.162016815 65.1774864816 538.933882593 33.4873046875 542.815429688 -3.798828125 c 1
 433.018554688 -3.798828125 l 1
 437.1640625 43.9735751268 438.78437009 69.8991089558 422.171875 104.4296875 c 1
 420.127885993 106.410258267 283.673610456 413.435941686 285.40625 424.642578125 c 1
 265.844726562 352.626827981 264.586600342 217.301275915 273.909179688 139.099609375 c 0
 279.376082647 101.628940292 286.459960937 105.123046875 367.407226562 95 c 1
 352.407226562 -24 l 1
 262.0240848 -9 142.384462553 -6 30.4189453125 -26 c 1
 20.4189453125 92 l 1
 110.254882812 91.3564453125 138 122 138.073242188 126.276367188 c 1
 138.038085938 128.566657094 155.163085938 507.551901571 154.811523438 511.404296875 c 1
 153.096344376 532.585743551 153.901419292 539.295071616 143.2421875 557.971679688 c 0
 129.477703345 579.001984627 114.544337763 596.092174899 23.41796875 589 c 1xb8
 44.41796875 715 l 1xd8
 139.72420847 700.923076923 246.883932147 686.079354974 342.796875 698 c 1
 370.105647578 701.037974147 377.291177813 671.139447234 379.088867188 669.282226562 c 0
 410.569407796 547.496564419 454.658829912 412.699416314 531.208984375 303.5 c 1
 533.287990871 312.418745584 687.814453125 682.700820594 687.814453125 684 c 0
 694.814453125 698 707.652858423 709.023938478 725.814453125 707 c 0
 803.024979441 695 874.787520559 702 950.997070312 708 c 1
 962.997070312 589 l 1
 912.116210938 595.163085938 853.750280014 592.003376904 853.361328125 581.765625 c 0
 847.90814502 438.230300358 853.877684762 277.067977693 864.868164062 110.221679688 c 0
 865.36407119 102.693321175 919 99 960 104 c 1
 956 -22 l 1xb8
EndSplineSet
Validated: 524321
EndChar

StartChar: N
Encoding: 78 78 39
Width: 886
VWidth: 1159
Flags: W
HStem: -32 21G<272.467 325.402> -23 120<64.0117 116.436> 577 126<42.6035 116.599> 585 108<766.018 837>
VStem: 132.402 140.391<240.639 417.817>
LayerCount: 2
Fore
SplineSet
42.603515625 703 m 1x68
 92.8330078125 702.640625 186.012695312 689.547851562 248.16796875 691 c 0
 269.200195312 691.491210938 281.124023438 677.77734375 285.16796875 672 c 0
 388.3125 524.283203125 483.404296875 391.080078125 637.500976562 277.120117188 c 1
 638.966796875 344.288085938 632.575195312 445.370117188 630.610351562 513.122070312 c 0
 627.725585938 615.580078125 541.610351562 589.305664062 533.610351562 588 c 1
 546.610351562 706 l 1
 654.736328125 688.888671875 739.783203125 688.111328125 837 693 c 1
 851 585 l 1
 793.556640625 578.037109375 768.717773438 591.642578125 767.723632812 582.122070312 c 0
 748.786132812 403.013671875 753.890625 232.80859375 753.890625 24.6064453125 c 0
 753.890625 7.9755859375 765.098632812 -10.185546875 768.890625 -22.2001953125 c 1
 657.890625 -55.2001953125 l 1
 635.923828125 -9.6025390625 626.58984375 19.2470703125 599.390625 47.0361328125 c 0
 478.584960938 170.796875 400.721679688 306.10546875 272.79296875 417.817382812 c 1
 272.79296875 409.491210938 260.020507812 179.555664062 257.79296875 171.423828125 c 1
 254.689453125 139.49609375 260.60546875 103.758789062 345.79296875 101 c 1
 321.79296875 -32 l 1x98
 223.140625 5.5 153.342773438 -16.25 64.01171875 -23 c 1
 54 97 l 1
 76 99 114.991210938 100.000976562 116.40234375 111.423828125 c 0
 133.32421875 248.629882812 132.64453125 420.862304688 132.40234375 542.307617188 c 1
 110 563 90 573 37.603515625 577 c 1
 42.603515625 703 l 1x68
EndSplineSet
Validated: 524321
EndChar

StartChar: O
Encoding: 79 79 40
Width: 817
VWidth: 1159
Flags: W
HStem: -32 132.83<372.912 488.896> 578.624 133.376<297.389 433.987>
VStem: 37 195.659<269.869 455.099> 568.604 210.967<213.402 418.819>
LayerCount: 2
Fore
SplineSet
353.59765625 578.624023438 m 3
 291.040039062 578.624023438 232.659179688 516.606445312 232.659179688 384.061523438 c 3
 232.659179688 230.598632812 346.095703125 100.830078125 437.573242188 100.830078125 c 3
 510.064453125 100.830078125 568.603515625 210.62109375 568.603515625 318.931640625 c 3
 568.603515625 431.212890625 478.775390625 578.624023438 353.59765625 578.624023438 c 3
405.77734375 712 m 3
 599.306640625 712 779.5703125 545.849609375 779.5703125 333 c 3
 779.5703125 130.48046875 606.73828125 -32 415.786132812 -32 c 3
 241.251953125 -32 37 97.0458984375 37 335 c 3
 37 538.328125 211.217773438 712 405.77734375 712 c 3
EndSplineSet
Validated: 524289
EndChar

StartChar: P
Encoding: 80 80 41
Width: 660
VWidth: 1159
Flags: W
HStem: -31 103<65.6534 133.557> -22 118.638<328.552 412.398> 576 125<282.019 365.624>
VStem: 137.429 180.571<96.4517 194.54 301.246 433.92> 425.142 186.858<351.759 508.79>
LayerCount: 2
Fore
SplineSet
324.235351562 301.255859375 m 1x38
 396.951171875 307.798828125 425.141601562 377.255859375 425.141601562 435.091796875 c 1
 425.141601562 494.284179688 373.506835938 569.818359375 326.235351562 575.784179688 c 1
 324 576 323.133789062 576 322 576 c 1
 320 576 319.004882812 573.249023438 319 573 c 0
 318 518.95703125 318 401.743164062 318 307 c 1
 318 303 321 301 324.235351562 301.255859375 c 1x38
50.828125 696 m 1
 85.2021484375 692 99.3525390625 690 144.413085938 690 c 1
 217.120117188 690 245.29296875 701 316 701 c 1
 488.766601562 701 612 578.104492188 612 448 c 1
 612 350.448242188 543.428710938 199.340820312 326.413085938 194.192382812 c 1
 325 194 324.248046875 194.002929688 323.583007812 193.002929688 c 1
 326.583007812 154.35546875 319.331054688 101.041015625 334.798828125 96.6376953125 c 0
 341.3984375 94.6806640625 400 106.022460938 423.3984375 92 c 1
 412.3984375 -22 l 1x78
 278.037109375 -2.615234375 221.924804688 -5.384765625 67.828125 -31 c 1
 35.828125 72 l 1xb8
 70 85 137.345703125 90.9091796875 137.428710938 92.6142578125 c 0
 143.905273438 226.076171875 131 560.916015625 126.287109375 574.471679688 c 0
 124.3046875 580.139648438 89.5009765625 576.440429688 45.828125 576 c 1
 50.828125 696 l 1
EndSplineSet
Validated: 524321
EndChar

StartChar: Q
Encoding: 81 81 42
Width: 795
VWidth: 1361
Flags: W
HStem: -206.767 117.767<741.032 905.987> 607.914 104.086<338.634 454.815>
VStem: 37.042 209.953<234.23 476.766> 550.025 214.188<223.242 471.237>
LayerCount: 2
Fore
SplineSet
392.380859375 607.9140625 m 3
 313.796875 607.9140625 246.995117188 495.000976562 246.995117188 354.061523438 c 3
 246.995117188 186.943359375 350.506835938 97 422.21875 97 c 3
 505.655273438 97 550.025390625 191.840820312 550.025390625 303.7421875 c 3
 550.025390625 527.854492188 472.080078125 607.9140625 392.380859375 607.9140625 c 3
622.829101562 35 m 1
 655.40234375 -35.9111328125 756.291015625 -89 836.829101562 -89 c 3
 871.62109375 -89 900.456054688 -88.6630859375 912 -83.7666015625 c 1
 936 -169.766601562 l 1
 911.05078125 -185.993164062 858.947265625 -206.766601562 794 -206.766601562 c 3
 620.794921875 -206.766601562 522.829101562 -138.141601562 410.829101562 -32 c 1
 174.123046875 -19.1005859375 37.0419921875 135.6875 37.0419921875 351 c 3
 37.0419921875 557.909179688 194.549804688 712 396.21875 712 c 3
 598.821289062 712 764.212890625 551.859375 764.212890625 354 c 3
 764.212890625 185.041992188 653.708007812 54.9736328125 622.829101562 35 c 1
EndSplineSet
Validated: 524289
EndChar

StartChar: R
Encoding: 82 82 43
Width: 785
VWidth: 1159
Flags: W
HStem: -45 109<716.949 785> -23 121<52.8281 113.775> 213.034 109.966<312.122 356.338> 583 109<36.8281 119.296> 593.724 117.276<310.698 371.096>
VStem: 119.482 192.518<325.742 576.71> 428.432 178.568<379.314 531.576>
LayerCount: 2
Fore
SplineSet
312 326 m 1x2e
 308.029296875 325 320.653320312 323 322.005859375 323 c 3
 382.53125 323 428.431640625 383.440429688 428.431640625 463.736328125 c 3
 428.431640625 528.51953125 367.833984375 593.723632812 324.827148438 593.723632812 c 3
 314.99609375 593.723632812 310.186523438 584.725585938 310.0859375 565.954101562 c 0
 310 549.520507812 312.545898438 384.435546875 312 326 c 1x2e
36.828125 692 m 1x76
 88.5361328125 691 119.6953125 690 165.413085938 690 c 1
 228.767578125 690 256.048828125 711 331 711 c 1
 470.108398438 711 607 614.274414062 607 482 c 1
 607 381.783203125 539.01171875 288.845703125 517 277 c 1
 652.7890625 103.158203125 710.168945312 67.5517578125 807 64 c 1
 785 -45 l 1xae
 603.923828125 -39.9423828125 413.755859375 101.924804688 357 217 c 1
 342.776367188 214.783203125 334.650390625 213.01171875 319.513671875 213.034179688 c 1
 316.715820312 213.338867188 312 215 312 215 c 1
 313.168945312 179.89453125 318.25 110.168945312 324.26953125 103.98828125 c 0
 330.4453125 97.646484375 374.279296875 93.8662109375 405 98 c 1
 396 -27 l 1
 286.768554688 -5 171.703125 -3 52.828125 -23 c 1
 30.828125 98 l 1
 87.802734375 100.66796875 113.134765625 114.938476562 114 115 c 1
 137.284179688 313.858398438 129.645507812 396.641601562 119.482421875 559.110351562 c 1
 119.697265625 576.577148438 86.869140625 581.529296875 36.828125 583 c 1
 36.828125 692 l 1x76
EndSplineSet
Validated: 524321
EndChar

StartChar: S
Encoding: 83 83 44
Width: 585
VWidth: 1159
Flags: W
HStem: -23 123.632<234.967 364.241> 594.454 117.546<261.446 369.953>
VStem: 76.6953 175.068<472.953 586.73> 375.058 171.12<111.988 235.245>
LayerCount: 2
Fore
SplineSet
29 231.594726562 m 5
 132.59765625 248.392578125 l 5
 142.391601562 230.200195312 165.5078125 191.930664062 174.235351562 173.982421875 c 4
 197.075195312 135.247070312 262.279296875 100.631835938 310.861328125 100.631835938 c 7
 363.243164062 100.631835938 375.057617188 128.306640625 375.057617188 170.103515625 c 3
 375.057617188 228.62890625 336.430664062 266.62890625 264.345703125 289.623046875 c 0
 151.811523438 323.35546875 76.6953125 398.235351562 76.6953125 500.01171875 c 3
 76.6953125 603.771484375 170.779296875 712 315.58203125 712 c 3
 367.911132812 712 405.080078125 705.364257812 424.413085938 687.448242188 c 0
 439.22265625 675.352539062 431.353515625 676.034179688 441.978515625 715 c 1
 535.978515625 690 l 1
 522.177734375 642 527.190429688 622.017578125 534.388671875 580.6796875 c 0
 550.177734375 490 532.177734375 484 434.763671875 485.7421875 c 1
 422.296875 537.509765625 411.772460938 541.537109375 386.94140625 563.547851562 c 0
 351.967773438 584.052734375 332.458007812 594.454101562 293.131835938 594.454101562 c 3
 271.499023438 594.454101562 251.763671875 576.552734375 251.763671875 537.080078125 c 3
 251.763671875 498.051757812 268.07421875 449.27734375 355.395507812 426.232421875 c 0
 458.744140625 399.23828125 546.177734375 320.416992188 546.177734375 195.59765625 c 3
 546.177734375 101.3828125 485.92578125 -23 300.321289062 -23 c 7
 274.013671875 -23 217.872070312 6.7626953125 183.057617188 12.9267578125 c 5
 173.541992188 0.8837890625 177.6953125 -17.6796875 164.8046875 -22 c 5
 66.8046875 -11 l 5
 73.197265625 85.162109375 66.6943359375 86.390625 29 231.594726562 c 5
EndSplineSet
Validated: 524321
EndChar

StartChar: T
Encoding: 84 84 45
Width: 719
VWidth: 1159
Flags: W
HStem: -30 21G<216.837 257.343> 562.006 130.448<146.407 273.673 473.58 573.175>
VStem: 266.598 199.931<101.683 465.033>
LayerCount: 2
Fore
SplineSet
155.356445312 692.454101562 m 0
 300.345703125 691.369140625 456.489257812 688.422851562 605.392578125 690 c 0
 631.517578125 690.276367188 641.181640625 706.400390625 652.392578125 724 c 1
 739.392578125 674 l 1
 713.153320312 613.279296875 682.202148438 544.592773438 682 470 c 1
 565 488 l 1
 565 500.6171875 572.825195312 511.052734375 576.595703125 532.51171875 c 1
 576 550 539.983398438 555.791015625 473.580078125 562.005859375 c 1
 466.641601562 422.94921875 463.8828125 256.475585938 466.528320312 120.799804688 c 0
 466.7734375 108.198242188 492 95 531.5859375 94 c 1
 514.5859375 -20 l 1
 434.4140625 -0.625 294.271484375 -8.25 220.4140625 -30 c 1
 198.4140625 93 l 1
 224.291992188 93.2998046875 266.512695312 104.02734375 266.59765625 105.2578125 c 0
 273.138671875 199.967773438 283.317382812 484.883789062 271.236328125 564.551757812 c 1
 248.022460938 567.026367188 201.90625 563.536132812 177.081054688 555.8046875 c 0
 141.962890625 544.868164062 123.635742188 526.646484375 112 474 c 1
 -4 525 l 1
 19.4443359375 582.538085938 49.537109375 684.33984375 70.8046875 732 c 1
 116.181640625 724.276367188 154.690429688 692.458984375 155.356445312 692.454101562 c 0
EndSplineSet
Validated: 524321
EndChar

StartChar: comma
Encoding: 44 44 47
Width: 220
VWidth: 1159
Flags: W
VStem: -22.0996 262.199<28.5265 82.95>
LayerCount: 2
Fore
SplineSet
30.380859375 -184.208984375 m 1
 -12.01953125 -113.609375 l 1
 25.2685546875 -90.9560546875 71.580078125 -60.107421875 56.5 -26 c 0
 44.638671875 -1.0205078125 21.2333984375 18.0234375 -7.099609375 28.5 c 0
 -16.099609375 32.1005859375 -22.099609375 44.701171875 -22.099609375 55.5 c 3
 -22.099609375 66.2998046875 -15.4248046875 74.0390625 -7.099609375 78.900390625 c 0
 38.1982421875 107.979492188 55.3642578125 130.59765625 80.0205078125 175.140625 c 0
 84.4013671875 183.765625 95.6201171875 191.340820312 106.419921875 191.340820312 c 3
 117.220703125 191.340820312 126.244140625 183.071289062 131.62109375 175.140625 c 0
 160.197265625 135.520507812 186.638671875 107.23828125 219.700195312 92.1005859375 c 0
 233.66796875 86.5048828125 240.099609375 76.0849609375 240.099609375 65.1005859375 c 3
 240.099609375 9.8103908635 160.131835938 -149.599609375 30.380859375 -184.208984375 c 1
EndSplineSet
Validated: 524321
EndChar

StartChar: period
Encoding: 46 46 48
Width: 220
VWidth: 1159
Flags: W
HStem: -71.2686 263.736<80.7724 137.97>
VStem: -20.4033 262.406<29.6888 86.9238>
LayerCount: 2
Fore
SplineSet
227.603515625 30.9550875 m 0
 178.79453125 3.77245625 160.077539063 -12.4736234375 135.700195312 -56.8691453125 c 0
 131.343945313 -65.5078171875 121.899609375 -71.2685546875 111.100390625 -71.2685546875 c 3
 100.299795313 -71.2685546875 87.5800875 -65.3144578125 82.9003953125 -56.8691453125 c 0
 60.083975 -18.9306546875 41.3837890625 5.5703078125 -5.402343775 32.6455171875 c 0
 -13.9248053125 37.1572171875 -20.403315625 50.6455171875 -20.403315625 61.4453125 c 3
 -20.403315625 72.24413125 -13.6845709375 79.94335 -5.402343775 84.844721875 c 0
 37.5263671875 112.655282812 59.312490625 131.846679688 82.9003953125 176.26796875 c 0
 87.13868125 184.970117188 100.299795313 192.467773438 111.100390625 192.467773438 c 3
 121.899609375 192.467773438 131.207226563 184.827539063 135.700195312 176.26796875 c 0
 156.957421875 138.952148438 180.95078125 109.834970312 227.603515625 83.15526875 c 0
 236.15234375 78.677725 242.003125 70.554678125 242.003125 59.7548828125 c 3
 242.003125 48.9550875 236.21484375 35.3408109375 227.603515625 30.9550875 c 0
EndSplineSet
Validated: 524289
EndChar

StartChar: uni0307
Encoding: 775 775 49
Width: 0
VWidth: 1159
Flags: W
HStem: 431.981 195.838<-233.944 -119.472>
VStem: -272.222 191.644<470.434 589.294>
LayerCount: 2
Fore
SplineSet
-179.887 627.819 m 0
 -127.162 627.819 -80.578 584.58 -80.578 526.84 c 0
 -80.578 469.665 -136.698 431.981 -173.913 431.981 c 0
 -226.638 431.981 -272.222 472.77 -272.222 531.96 c 0
 -272.222 589.135 -217.102 627.819 -179.887 627.819 c 0
EndSplineSet
Validated: 1
EndChar

StartChar: dotlessi
Encoding: 305 305 50
Width: 291
VWidth: 1159
Flags: W
HStem: -23 103<-1.95142 52.5302 237.78 287.118> 507.787 20G<126.113 199.216>
VStem: 57.4673 161.27<92.2721 361.548>
LayerCount: 2
Fore
SplineSet
218.737 208.63 m 3
 218.737 175.674111268 226.824624027 135.065078795 236 104 c 1
 240.100410413 95.1609177462 232.037211424 90.1086077887 236.62 88.4971 c 0
 261.506 79.7461 276.97 80.8806 302.812 80 c 1
 285.974 -23 l 1
 232.224 -17 171.19 -10 112.632 -10 c 1
 70.9056 -10 43.7561 -17 -1.2515 -22 c 1
 -11.24986 76.9951 l 1
 8.308403 79.2022 35.6703253066 87.3235118904 53.3667 92.2488 c 0
 54.3009249848 92.5088152454 55 108 55.4093 116.3191 c 0
 56.3277058452 134.985872702 57.4673 174.89 57.4673 206.792 c 3
 57.4673 275.889814685 55.3423000561 332.427824512 51 363 c 1
 50 365 49 365 48 365 c 1
 43.1489215076 365 34.2078717596 362.179616617 15.6149 360.482 c 1
 -13.5586 458.482 l 1
 35.294 464.677 75.5876 470.052 176.639 527.787 c 1
 253.317 459.86 l 1
 253.27 456.215 244.711943803 441.477790139 239.467 418.385 c 0
 225.306 356.036 218.737 227.151 218.737 208.63 c 3
EndSplineSet
Validated: 524289
EndChar

StartChar: uniFB01
Encoding: 64257 64257 51
Width: 576
VWidth: 1159
Flags: W
HStem: -12 72<10 67.517 261.428 287.514 327.647 366.931 537.373 559.896> 326 74<236 361.362> 652 110<233.497 407.196>
VStem: 88 144<82.3083 325.308 400 609.174> 377 130<65.9078 313.33>
LayerCount: 2
Fore
SplineSet
336 326 m 0
 306 326 308.1171875 326 234 326 c 1
 232 311.223632812 232 297.6328125 232 293 c 3
 232 219.577148438 227.40625 149.5859375 244 79 c 0
 245.939453125 70.7490234375 251.87109375 60.0078125 261 59 c 0
 270.05859375 58 283.8671875 58 293 58 c 1
 287 -12 l 1
 241.63671875 -7 199.362837838 -5 154 -5 c 3
 113.245283019 -5 50.7547169811 -8 10 -12 c 1
 8 60 l 1
 17.7777777778 60 31.3378385452 56.9762123071 40 60 c 0
 73.540540541 71.7083333333 72.291015625 98.3154296875 74 106 c 0
 84 150.97265625 90 209.784179688 90 266 c 3
 90 278.645507812 88 302.3828125 88 326 c 1
 61.310546875 324 47.6891891892 318 21 316 c 1
 21 408 l 1
 47.6891891892 406 61.310546875 402 88 400 c 1
 88 437.78125 88 481.375 88 493 c 3
 88 604.071289062 106.633698701 630.616365047 220 710 c 0
 267.260456763 743.093668968 373.807407407 762 394 762 c 3
 420.392523364 762 504.130841121 733 531 715 c 1
 529 661 527 661 429 587 c 1
 383.878554651 597.857142857 381.181640625 652 277 652 c 3
 189.994253063 652 250 575 244 498 c 0
 243.078125 486.163085938 238 436.87109375 236 400 c 1
 256.266601562 400 321.033112586 400 349 400 c 1
 371.179541664 399.983221666 399.856889447 399.270557967 504 437 c 1
 544 405 l 1
 545.654029465 402.05078125 536.9277997 388.977420177 532.001953125 371.599609375 c 0
 514.144218488 308.599609447 507 213.875 507 196 c 3
 507 165.513671875 514.539297071 114.469873971 519 85 c 0
 521.571428571 68.01171875 533.926384068 61.271348085 537 59 c 0
 544.814182524 53.2254566257 561.815429688 55.6669921875 569 55 c 1
 559 -13 l 1
 510.328125 -7 449.415703782 -2 397 -2 c 3
 376.7875 -2 348.212890625 -7.0908203125 328 -10 c 1
 324.00390625 55.9951171875 l 1
 331.48046875 56.396484375 349.622678031 57.464455225 351 58 c 0
 364 63.0547963613 369.821666415 88.9894430171 373 107 c 0
 376 124 377 178.059570312 377 196 c 3
 377 206.24 375.018964766 247.295139451 373 270 c 0
 372.725949145 273.081919282 362.400757565 326 336 326 c 0
EndSplineSet
Validated: 33
EndChar

StartChar: uni0237
Encoding: 567 567 52
Width: 275
VWidth: 1159
Flags: W
HStem: 353.109 96<13.5969 63.8844> 511.396 20G<161.668 224.109>
VStem: -52.5947 96<-302.235 -263.306> 76.5587 154.361<-71.0277 355.581>
LayerCount: 2
Fore
SplineSet
-52.5947 -300.995 m 1
 -48.3621 -228.084 -34.5243569773 -189.036950656 5.7178 -146.151 c 0
 25.5208 -125.047 51.1146156523 -82.7653241241 56.3584 -67.6436 c 0
 59.9057 -57.4141 76.5587 9.21299 76.5587 140.431 c 1
 76.6981241219 203.999959564 68.129341604 283.518881346 65.1482569877 319.999998963 c 0
 63.1971236405 343.877055232 62.2633672483 357.089793665 50.6244 356.839 c 1
 45.6976 355.652 18.8354 354.201 14.4144 353.109 c 1
 -9.5856 449.109 l 1
 74.2152 460.446 123.237 476.402 200.098 531.396 c 1
 269.096 473.923 l 1
 264.245 459.274 255.074758875 438.361881613 250.646 421.062 c 0
 240.821 382.683 231.671 270.244 232.164 253.258 c 1
 232.71 154.9197 230.012 31.4774 230.92 -15.7031 c 1
 230.851 -90.8717 212.553141644 -144.340813464 183.874 -177.06 c 0
 153.96 -211.188 108.75487908 -229.48088135 75.2891 -252.707 c 0
 58.8949 -264.085 43.0215 -291.77 43.4053 -318 c 1
 -52.5947 -300.995 l 1
EndSplineSet
Validated: 524321
EndChar

StartChar: U
Encoding: 85 85 53
Width: 821
VWidth: 1159
Flags: W
HStem: -27 132.994<375.472 529.208> 583 116<19.8281 108.378 503.828 579.814> 590 108<300.832 381>
VStem: 102.828 186.264<184.689 578.654> 585.638 146.196<165.547 582.515>
LayerCount: 2
Fore
SplineSet
19.828125 699 m 1xd8
 102.393554688 690 277.745117188 689 381 698 c 1
 394 590 l 1xb8
 345.3125 588 304.40234375 590.149414062 302.162109375 580.66796875 c 0
 298.723632812 565.671875 289.091796875 339.348632812 289.091796875 276 c 3
 289.091796875 234.637695312 296.573242188 201.872070312 318.637695312 174 c 0
 344.893554688 133.400390625 405.599609375 105.994140625 463.610351562 105.994140625 c 3
 488.556640625 105.994140625 529.959960938 118.106445312 554.545898438 151 c 0
 573.208007812 173.169921875 584 217 585.637695312 251 c 0
 589.533203125 334.938476562 588.33984375 492.87890625 582.276367188 579.288085938 c 0
 582.143554688 581.115234375 537 587 499.828125 584 c 1
 503.828125 700 l 1
 578.16015625 690 751.8046875 683 797 701 c 1
 806 582 l 1
 775 586 730.198242188 594.817382812 729.736328125 582.564453125 c 0
 729.243164062 568.98828125 735.536132812 454.260742188 731.833984375 249 c 0
 730.313476562 167.7421875 700.380859375 106.015625 655.922851562 58.400390625 c 0
 601.768554688 0.400390625 518.606445312 -27 420.831054688 -27 c 1
 310.815429688 -27 236.354492188 7.115234375 187.629882812 60 c 0
 136.11328125 115.915039062 107.94140625 174.303710938 102.828125 253 c 0
 100.698242188 286.725585938 112.75 560.885742188 108.466796875 573.931640625 c 0
 106.64453125 579.325195312 100.498046875 579.014648438 6.828125 583 c 1
 19.828125 699 l 1xd8
EndSplineSet
Validated: 524321
EndChar

StartChar: V
Encoding: 86 86 54
Width: 819
VWidth: 1159
Flags: W
HStem: -30.5918 21G<353.429 470.008> 591 112<24.7598 77.5555 307.029 365.967> 687 20G<777.264 810.381>
VStem: 353.011 116.997<-29.5918 78.5586>
LayerCount: 2
Fore
SplineSet
368.994140625 698 m 1xd0
 366.994140625 584 l 1
 345.241601562 586.721679688 313.17112377 588.515190952 308.478515625 586.9140625 c 0
 302.477539062 583.662434895 305.293433617 572.529726563 305.59375 570 c 1
 308.498046875 559.798499367 454.140625 276.73785636 457.411132812 261.204101562 c 1
 464.498046875 279.638337224 524 446 564.212890625 565 c 24
 566 570 564.873675473 576.791651212 565.765625 578.196289062 c 0
 551.674464948 582.021986223 515.500589623 575.557850911 497.4140625 579 c 1
 500.4140625 704 l 1
 590.989864528 686 746.528125 686 808 707 c 1xb0
 823 581 l 1
 793.194444444 587 723 564 714 554 c 1
 689.384495402 522.660561552 533.433672179 202.453857485 479.137695312 57 c 0
 468.991361933 28.4734370815 471.547767857 0.4765625 470.0078125 -29.591796875 c 1
 353.010742188 -30.591796875 l 1
 353.846400668 6.466796875 354.905096452 11.8343929736 341.690429688 53 c 0
 308.10327591 159.387121115 203.984505922 377.451651797 86 562 c 0
 68.0678456491 589.019708866 41.3069306931 590.826086957 8.822265625 591 c 1
 25.822265625 703 l 1
 175.496752362 681 223.064430415 692 368.994140625 698 c 1xd0
EndSplineSet
Validated: 524321
EndChar

StartChar: W
Encoding: 87 87 55
Width: 1093
VWidth: 1159
Flags: W
HStem: -31 23G<326.814 431.784 677.119 783.987> 595 109<10.844 48.1245 304.346 342.569> 605 99<390.4 412.665 1066.39 1084.85>
VStem: 329.784 102<-31 63.5443>
LayerCount: 2
Fore
SplineSet
1083.57519531 704 m 1xb0
 1101.57519531 605 l 1xb0
 1010.7864237 556.288946185 995.301757811 532.600774759 947.8671875 430.23828125 c 1
 869.315429688 241.305780389 868.924795325 169.561108578 805.186523438 41 c 0
 789.640101738 9.4009374124 786.209960938 6 783.987304688 -25 c 1
 676.984375 -29 l 1
 677.25390625 9.45945945946 681.271969096 14.6610549468 664.184570312 66 c 0
 635.828230112 150.209553474 587.238783011 238.614785992 555.58984375 322 c 1
 498.447236905 191.157977433 443.015254359 47.9783782487 437.875976562 27 c 0
 431.389668315 0.25382696944 430.113281249 -3 431.784179688 -31 c 1
 329.784179688 -31 l 1
 323.843603642 13.7813387784 323.305450272 23.3384062035 293.37109375 107.599609375 c 0
 212.914754623 330.848836331 108.450460183 517.252593016 104.545898438 523 c 0
 94.8820400146 537.430395977 70.5552619991 559.502769041 59.890625 566.620117188 c 0
 45.8088700462 576.017975974 21.5986328125 589.193359375 -6 595 c 1
 12 704 l 1xd0
 83.5584079445 687.529297892 265.22134976 686.171799981 342.569335938 703 c 1
 343.340306951 685.45338651 346.391982088 614.899246003 347.569335938 593 c 1
 315.513261853 586.915226913 304.009765625 588.86767378 304.009765625 581.799804688 c 1
 304.009765625 567.213643974 308.549370279 547.245057357 319.290039062 521.400390625 c 1
 320.033203125 511.354030415 409.215820312 264.888274728 415.985351562 243 c 1
 423.569877006 264.478560239 491.304120039 427.799665886 494.985351562 442 c 1
 452.723751866 538.999868869 441.757076966 564.985536047 412.916992188 592.557617188 c 1
 407.721528925 596.766138133 391.539806276 599.379878674 386.400390625 599 c 1
 388.210298221 652.638776948 390.523841524 706.325589185 390.400390625 702 c 1
 462.463458713 687 599.727472318 682 684.96875 705 c 1
 697.96875 594 l 1
 684.428112399 592.702706474 653.858354871 597.749351127 643.008789062 591.21875 c 0
 635.999999999 587 635.999999999 577 639.96875 571 c 1
 643 565.788617886 772.846679688 269.767863948 779.788085938 250.5 c 1
 792.874187834 311.178596047 803.064394054 345.898706718 819.846679688 456.599609375 c 0
 828.24679236 512.009228512 800.09698099 607.269313219 742.590820312 590 c 1
 745.590820312 699 l 1
 818.793593111 687 962.358734632 688 1083.57519531 704 c 1xb0
EndSplineSet
Validated: 524321
EndChar

StartChar: X
Encoding: 88 88 56
Width: 778
VWidth: 1159
Flags: W
HStem: -17 102<298.831 343.406> -16 111<680.605 738> 599 106<355.627 379 673.849 730.519> 606 90<31.835 99.7311>
LayerCount: 2
Fore
SplineSet
31.8349609375 696 m 1x90
 150.82421875 689.208984375 281.825195312 684.85546875 379 705 c 1
 383 599 l 1
 367.474609375 593.599609375 363.9609375 594.029296875 353 589 c 0
 351.345703125 588.241210938 352 578 355 570 c 1
 377.41796875 502.5078125 404.235351562 454.196289062 406.825195312 449.642578125 c 1
 412.481445312 459.899414062 466.129882812 549.580078125 470.176757812 563.024414062 c 0
 472.014648438 569.236328125 474.59375 577 471.955078125 581.095703125 c 1
 470.59375 584 449.702148438 593.793945312 442.224609375 598 c 1
 457.224609375 699 l 1
 529.668945312 683 653.03515625 690 730 702 c 1
 738 597 l 1
 671.59375 579 662.263671875 578.315429688 620 540 c 0
 610.2890625 531.301757812 637.669921875 562.151367188 460.715820312 375.516601562 c 1
 480.538085938 349.53515625 623.985351562 164.31640625 639.78515625 143.680664062 c 1
 666.551757812 115.052734375 717.411132812 98.634765625 759 95 c 1
 738 -16 l 1x60
 668.422851562 -4.75 458.401367188 -7.875 392.834960938 -21 c 1
 383.834960938 79 l 1
 394.52734375 87.51171875 415.280273438 95.39453125 422.189453125 99.0859375 c 0
 429.213867188 102.83984375 437.881835938 110.842773438 432.201171875 121.522460938 c 0
 390.436523438 200.037109375 374 229.712890625 362.80859375 247.84765625 c 1
 315.247070312 182.643554688 297 120.779296875 298 105 c 1
 298.75390625 98.0517578125 295.1328125 94.4033203125 307.946289062 92.4482421875 c 0
 317.397460938 91.005859375 335.067382812 89.994140625 345.40625 85 c 1
 343.40625 -17 l 1
 254.174804688 -8 122.942382812 -5 35.630859375 -19 c 1
 30.630859375 79 l 1
 79 101 100.762695312 106.55078125 133.149414062 127.07421875 c 0
 142.337890625 132.897460938 133.624023438 133.411132812 298.8984375 321.6640625 c 1
 113.369140625 579.0859375 124.680664062 567.549804688 109.478515625 579.477539062 c 0
 79.599609375 601.700195312 54 595.572265625 29.8349609375 606 c 1
 31.8349609375 696 l 1x90
EndSplineSet
Validated: 524321
EndChar

StartChar: Y
Encoding: 89 89 57
Width: 730
VWidth: 1159
Flags: W
HStem: -31 21G<230.256 290.522> -21 118<489.248 549> 578 118<427.429 466.276 630.294 732>
VStem: 295.429 176.804<114.233 295.517>
LayerCount: 2
Fore
SplineSet
359 580 m 1xb0
 337.513671875 580.552734375 319.004882812 578.72265625 311 577 c 0
 308.680664062 576.2734375 308.40234375 570.619140625 310 564 c 1
 326.829101562 494.473632812 368.990234375 446.215820312 397.48828125 409.045898438 c 1
 406.776367188 426.879882812 471.858398438 551.284179688 472.5234375 561.184570312 c 1
 472.446289062 565.998046875 468.828125 567.965820312 466.819335938 569.078125 c 0
 455.370117188 573.18359375 434.794921875 576.422851562 421.428710938 578 c 1
 427.428710938 696 l 1
 484.462890625 691 647.438476562 684.5 732 697 c 1
 732 575 l 1
 695.16796875 578.22265625 638.743164062 562.108398438 630.291015625 556.061523438 c 1
 554.508789062 506.235351562 500.37890625 398.373046875 472.232421875 311.12109375 c 1
 471.303710938 270.943359375 467 203 483 124 c 0
 486.435546875 107.041015625 554.485351562 100 563 97 c 1
 549 -21 l 1x70
 440.590820312 -8.0712890625 345.615234375 0.44140625 235.428710938 -31 c 1
 205.428710938 85 l 1
 226.923828125 90.8720703125 293.520507812 113.516601562 295.428710938 128.889648438 c 1
 295.044921875 133.323242188 297.336914062 248.877929688 298.428710938 253.0859375 c 1
 274.46484375 286.094726562 202.8203125 450.049804688 82.11328125 561.833984375 c 1
 73.4638671875 571 25.0048828125 578 -6.5703125 584 c 1
 3.4296875 699 l 1
 91.5546875 692 266.928710938 682 345 699 c 1
 359 580 l 1xb0
EndSplineSet
Validated: 524321
EndChar

StartChar: Z
Encoding: 90 90 58
Width: 713
VWidth: 1159
Flags: W
HStem: -10.2705 106.265<342.977 517.535> 574.784 120.032<150.616 388.646>
LayerCount: 2
Fore
SplineSet
19.0498046875 535 m 1
 47.8017578125 616.041015625 49.1103515625 727.06640625 107.845703125 739.798828125 c 1
 157.271484375 726.633789062 162.09765625 694.951171875 164.223632812 694.81640625 c 0
 213.186523438 691.72265625 539.50390625 687.620117188 632.838867188 692.380859375 c 0
 642.86328125 692.892578125 641.47265625 692.278320312 643.455078125 691.81640625 c 1
 682.455078125 629.908203125 l 1
 683.337890625 630.356445312 678.991210938 624.932617188 678.215820312 624.747070312 c 0
 671.67578125 623.09375 352.169921875 105.514648438 342.9765625 95.994140625 c 1
 395.899414062 96.5625 463.577148438 96.4912109375 480.102539062 96.177734375 c 0
 504.184570312 95.720703125 561.811523438 150.38671875 594 217.383789062 c 1
 687 173.383789062 l 1
 648.833984375 60.0966796875 634.389648438 4.212890625 602.638671875 -52 c 1
 569.265625 -28.7666015625 570.612304688 -12.3203125 482.184570312 -10.2705078125 c 0
 368.971679688 -7.646484375 116.100585938 -8.5107421875 54.259765625 -14 c 1
 23.259765625 69 l 1
 74.662109375 83.466796875 102.936523438 110.05859375 128.622070312 142 c 1
 214.471679688 276.083007812 301.166992188 436.000976562 385.645507812 575.005859375 c 1
 385.703125 574.962890625 388.645507812 579.005859375 388.645507812 579.005859375 c 1
 364.837890625 574.091796875 165.934570312 575.381835938 153.768554688 574.784179688 c 1
 150 575 131 505 128.892578125 496.689453125 c 1
 19.0498046875 535 l 1
EndSplineSet
Validated: 524321
EndChar

StartChar: zero
Encoding: 48 48 61
Width: 581
VWidth: 1159
Flags: W
HStem: -19.4219 120.249<260.272 346.878> 394.907 117.634<236.138 308.109>
VStem: 52 159.727<170.551 360.532> 369.712 159.021<140.64 305.308>
LayerCount: 2
Fore
SplineSet
274.92578125 394.907226562 m 3
 226.686836196 394.907226562 211.7265625 324.667324388 211.7265625 309.083007812 c 3
 211.7265625 197.754094866 243.243922731 100.827148438 305.819335938 100.827148438 c 3
 319.679645833 100.827148438 369.711914062 121.649143299 369.711914062 173.65625 c 3
 369.711914062 325.093078785 299.416937582 394.907226562 274.92578125 394.907226562 c 3
284.240234375 512.541015625 m 3
 461.57096875 512.541015625 528.732421875 363.446992187 528.732421875 249.473632812 c 3
 528.732421875 136.399805598 454.076671875 -19.421875 296.947265625 -19.421875 c 3
 133.514804688 -19.421875 52 108.098047786 52 258.548828125 c 3
 52 333.862851563 105.943054687 512.541015625 284.240234375 512.541015625 c 3
EndSplineSet
Validated: 524289
EndChar

StartChar: one
Encoding: 49 49 62
Width: 498
VWidth: 1159
Flags: W
HStem: -10 92.7227<99.0674 160.114 351.397 406.229> 407.408 89.1982<105.738 170.494> 492 20G<382.743 409.019>
VStem: 184.045 146.613<94.4248 387.001>
LayerCount: 2
Fore
SplineSet
105.73828125 496.606445312 m 1xd0
 189.174554688 491.870117187 356.876992187 500.546875 408.608398438 512 c 9xb0
 410.608398438 414.612304688 l 1
 342.58765625 416.115617187 346.916992188 386.553710938 340.436523438 393.99609375 c 0
 335.900664063 353.843850624 330.658203125 290.463598208 330.658203125 227.90625 c 3
 330.658203125 158.541325487 341.389945313 113.11094822 350.865234375 92.650390625 c 0
 361.61328125 88.5830078125 410.905273438 78.33203125 411.265625 82.72265625 c 9
 406.229492188 -10 l 1
 322.55446875 -9.999999 223.225742188 -10 99.0673828125 -10 c 9
 89 80.5390625 l 1
 63.2177734375 76.8525390625 148.314453125 96.10546875 160.749023438 91.466796875 c 0
 173.696335938 112.210712639 184.044921875 138.239283811 184.044921875 227.90625 c 3
 183.044921875 319.311092848 178.037632812 338.79707687 172.364257812 389.348632812 c 0
 165.202148438 387.427734375 155.666179688 402.14728125 102.825195312 407.408203125 c 9
 105.73828125 496.606445312 l 1xd0
EndSplineSet
Validated: 524321
EndChar

StartChar: two
Encoding: 50 50 63
Width: 641
VWidth: 1159
Flags: W
HStem: -21.9141 21G<98.1515 120.791> -13.8555 144.083<290.411 450.264> 371.881 146.533<224.999 378.643>
VStem: 326.107 165.278<285.089 365.566>
LayerCount: 2
Fore
SplineSet
81.58984375 379.951171875 m 1xb0
 124.77614375 427.688359375 204.989148438 518.4140625 318.399414062 518.4140625 c 1
 435.996570313 518.4140625 491.385742188 422.852056185 491.385742188 350.921875 c 3
 491.385742188 236.79775 307.438734375 166.809453125 288.131835938 130.227539062 c 1
 424.684570312 140.9765625 401.538977283 128.48909552 414.6640625 136.162109375 c 1
 465.578867376 156.004447859 492.33984375 173.935793102 502.38671875 195.362304688 c 1
 585 130.78125 l 1
 585 130.78125 527.367335938 71.171096037 509.217773438 -39.7509765625 c 1
 498.11328125 -13.5771211574 372.15625 -13.85546875 351.288085938 -13.85546875 c 1x70
 266.150085937 -13.85546875 135.426709375 -10.6318359375 106.154296875 -21.9140625 c 1
 71.4755859375 64.751953125 l 1
 134.697882812 131.7824875 326.107421875 234.200523438 326.107421875 327.764648438 c 3
 326.107421875 361.926480148 300.867242187 371.880859375 278.38671875 371.880859375 c 1
 242.781820313 371.880859375 183.2048125 346.989789062 142.314453125 318.618164062 c 1
 81.58984375 379.951171875 l 1xb0
EndSplineSet
Validated: 524321
EndChar

StartChar: three
Encoding: 51 51 64
Width: 501
VWidth: 1159
Flags: W
HStem: 381.801 136.61<191.343 327.03>
VStem: 268.92 160.723<282.387 420.063> 300.723 165.277<-32.7051 103.144>
LayerCount: 2
Fore
SplineSet
70.4375 -179.731445312 m 1xa0
 268.9433125 -90.3845859375 300.72265625 -41.3478546875 300.72265625 34.115234375 c 3xa0
 300.72265625 98.317942404 268.478367187 113.927013967 247.37109375 136.621289063 c 1
 228.078117187 124.551953125 174.985390625 107.148640625 130.639648438 98.0958984375 c 1
 88.33203125 170.996289063 l 1
 181.956929688 229.698789062 268.919921875 265.181390625 268.919921875 342.2578125 c 3
 268.919921875 354.293953125 266.245210938 381.80078125 242.1875 381.80078125 c 3
 201.622015625 381.80078125 166.220117188 365.716015625 118.228515625 347.142578125 c 1
 64.8154296875 404.630859375 l 1
 95.329875 449.708171875 197.820453125 518.411132812 281.633789062 518.411132812 c 3
 372.426234375 518.411132812 429.642578125 455.2403125 429.642578125 384.885742188 c 3xc0
 429.642578125 291.16353125 406.375 261.595703125 376.423828125 228.933789063 c 1
 409.983132813 201.135530902 466 148.489304656 466 43.705078125 c 3
 466 -108.561328125 219.421203125 -225.13359375 108.314453125 -261.7890625 c 1
 70.4375 -179.731445312 l 1xa0
EndSplineSet
Validated: 524289
EndChar

StartChar: four
Encoding: 52 52 65
Width: 658
VWidth: 1159
Flags: W
HStem: -6.51562 122.59<226.393 348.984 493.32 546.848> 500.994 20G<402.035 451.076>
VStem: 346.773 144.376<121.642 261.058>
LayerCount: 2
Fore
SplineSet
348.984375 116.07421875 m 1
 348.984375 179.806857786 342.849039063 219.054783536 346.7734375 262.138671875 c 1
 346.7734375 262.138671875 271.833301764 175.68795582 224.19921875 114.376953125 c 1
 287.745117188 116.07421875 298.002929688 116.07421875 348.984375 116.07421875 c 1
504.4453125 470.182617187 m 1
 489.70203125 424.627509766 491.827141262 348.087521812 491.149414062 213.135742188 c 0
 487.149414062 158.941048371 488.8771875 182.013725133 493.3203125 118.73828125 c 1
 501.975167411 118.872318591 503.617047991 124.454995365 548.940429688 125.514648438 c 1
 548.940429688 125.514648438 609.267265625 101.266557812 617.416992188 96.9677734375 c 1
 617.416992188 96.9677734375 595.264648438 28.880859375 581.963867188 -16.447265625 c 1
 528.726449298 -8.208984375 502 -6 493.3203125 -5.408203125 c 1
 495 -18 502.385742188 -132.900390625 518.068359375 -185.20703125 c 1
 447.93234375 -191.805664062 445.181914063 -240.825195312 404.919921875 -263.477539062 c 1
 404.919921875 -263.477539062 312.008046875 -207.9359375 306.014648438 -197.323242188 c 1
 360.460420496 -162.152462945 348.879379137 43.3771201987 349.173828125 -6.515625 c 1
 128.354289871 -6.515625 165.708972703 3.1279296875 104.51953125 -44.0849609375 c 1
 104.51953125 -44.0849609375 25.904284375 12.598631875 17 20.5 c 1
 37.4438715987 40.360818535 387.634602108 453.342362536 416.434570312 520.994335938 c 1
 504.4453125 470.182617187 l 1
EndSplineSet
Validated: 524321
EndChar

StartChar: five
Encoding: 53 53 66
Width: 502
VWidth: 1159
Flags: W
HStem: 337.488 160.557<194.855 364.867>
VStem: 265.053 146.24<-21.2183 88.9586>
LayerCount: 2
Fore
SplineSet
94.669921875 499.657226562 m 1
 265.980117188 491.72265625 307.5229148 496.716136818 341.002929688 498.044921875 c 0
 361.082417668 499.83645625 380.302983774 546.353596875 384.139648438 566.3828125 c 1
 384.139648438 566.3828125 451.395195312 522.256992188 459 518.39453125 c 1
 430.64140625 459.742460938 400.23531736 339.442155369 380.73046875 337.48828125 c 0
 293.152526401 337.303432292 303.4966743 338.862304688 194.85546875 339.13671875 c 1
 194.85546875 339.13671875 200.155039063 256.2626418 203.359375 269.977539062 c 1
 339.829026442 278.588867188 411.29296875 192.900390625 411.29296875 72.8251953125 c 3
 411.29296875 -89.8068694456 232.163884943 -208.793676537 64.095703125 -229 c 1
 64.095703125 -229 64.8398 -137.543359375 59.716796875 -128.139648438 c 1
 120.175983297 -120.404628034 265.052734375 -89.3176030925 265.052734375 41.5888671875 c 3
 265.052734375 61.4028664315 249.363844867 140.385395665 81.3544921875 121.728515625 c 1
 91.9630859375 227.015532337 97.694150625 372.505756359 94.669921875 499.657226562 c 1
EndSplineSet
Validated: 524321
EndChar

StartChar: six
Encoding: 54 54 67
Width: 611
VWidth: 1159
Flags: W
HStem: -27 112.52<295.171 371.984> 318.83 113.17<298.657 413.361> 680 20G<278.662 395.397>
VStem: 77.6064 162.394<165.486 391.05> 395 154<116.053 274.013>
LayerCount: 2
Fore
SplineSet
386.939453125 700 m 1
 386.939453125 700 416.053125 621.873085938 424.59375 610.953125 c 1
 267.965153014 494.372034889 240 438.801279086 240 293 c 3
 240 176.521564269 285.567008669 85.51953125 333.362304688 85.51953125 c 3
 348.022194491 85.51953125 395 107.733747809 395 167 c 3
 395 284.095174383 341.59185732 318.830078125 322.645507812 318.830078125 c 3
 319.974360275 318.830078125 307.857990535 318.307285113 301.012695312 314.80078125 c 1
 279.946289062 408 l 1
 299.128611574 419.293714286 320.288696468 432 360.762695312 432 c 3
 465.959560975 432 549 331.510997713 549 215 c 3
 549 84.8929329923 444.233015959 -27 312.1484375 -27 c 3
 134.136564174 -27 77.6064453125 146.101996429 77.6064453125 246 c 3
 77.6064453125 436.683664063 170.384601562 585.164 386.939453125 700 c 1
EndSplineSet
Validated: 524289
EndChar

StartChar: seven
Encoding: 55 55 68
Width: 590
VWidth: 1159
Flags: W
HStem: 343.884 148.812<202.593 359.135> 514.084 20G<114.807 163.378>
LayerCount: 2
Fore
SplineSet
203 496 m 1
 194.090909091 498.25 199.808709926 494.058101325 217.573242188 492.696289062 c 0
 335.237306132 485.204332709 497.920836493 489.846679688 519.724609375 495.546875 c 1
 519.724609375 495.546875 546.168085937 422.5796875 553 414.831054688 c 1
 499.396026995 354.976045856 263.70901508 -89.5682190909 259.604492188 -162.522460938 c 1
 259.604492188 -162.522460938 106.301770312 -159.7590625 82.1220703125 -160.5390625 c 1
 170.90131739 0.0304564645841 264.30222967 130.879609946 363.08203125 321.889648438 c 0
 365.930124864 327.60630214 362.097771512 334.721341057 354.186523438 336.110351562 c 0
 313.314725946 346.793851563 306.432006628 348.502522702 298.708984375 343.883789062 c 0
 196.303969597 341.484107849 157.364257812 338.263392104 134.37890625 266.263671875 c 1
 134.37890625 266.263671875 62.83401875 301.59515625 52.3857421875 304.282226562 c 1
 52.3857421875 304.282226562 110.0546875 482.788443548 119.55859375 534.083984375 c 1
 203 496 l 1
EndSplineSet
Validated: 524321
EndChar

StartChar: eight
Encoding: 56 56 69
Width: 584
VWidth: 1159
UnlinkRmOvrlpSave: 1
Flags: W
HStem: -27.7998 104.55<273.687 338.885> 562.925 97.9854<250.169 306.992>
VStem: 77 145.639<130.952 230.15> 114.225 135.867<474.449 560.837> 329.303 133.339<442.312 541.091> 371.386 151.218<85.8227 204.638>
LayerCount: 2
Fore
SplineSet
270.938476562 562.924804688 m 3xe8
 257.322611975 562.924804688 250.091796875 565.186502551 250.091796875 537.728515625 c 3
 250.091796875 397.701796875 522.603515625 367.308867187 522.603515625 166.919921875 c 3xd4
 522.603515625 78.1521890625 464.378472223 -27.7998046875 289.921875 -27.7998046875 c 3
 163.999283981 -27.7998046875 77 48.408978125 77 162.030273438 c 3
 77 299.565527824 329.302734375 402.495014696 329.302734375 479 c 3
 329.302734375 528.924713997 293.811844675 562.924804688 270.938476562 562.924804688 c 3xe8
296.522460938 660.91015625 m 3
 320.84765625 660.91015625 363.095028594 653.204179103 377.268554688 642.204101562 c 0
 415.428466219 620.315070312 462.641601562 576.46640625 462.641601562 508 c 3
 462.641601562 378.442752724 222.638671875 273.527383945 222.638671875 207.26953125 c 3xe8
 222.638671875 177.405648859 240.729837282 76.75 338.884765625 76.75 c 3
 327.745234764 76.75 371.385742188 83.4975142957 371.385742188 128.728515625 c 3
 371.385742188 202.564625 326.890883555 238.457378408 285.476273438 270.528515625 c 0
 222.861124238 321.652772014 114.224609375 398.710376567 114.224609375 482.950195312 c 3
 114.224609375 617.70776882 217.080905406 660.91015625 296.522460938 660.91015625 c 3
EndSplineSet
EndChar

StartChar: uniFB00
Encoding: 64256 64256 71
Width: 642
VWidth: 1159
Flags: W
HStem: -12 72<16 67.755 329.611 368.4 531.098 623.568> 326 74<241 379 523 626.682> 620 110<277.781 405.756> 652 110<514.891 728.292>
VStem: 93 152<401.213 534.59> 93 144<88.6969 325.308> 377 154<401.737 585.245> 381 138<82.3083 325.308>
LayerCount: 2
Fore
SplineSet
381 400 m 1xe9
 381 437.78125 377 481.375 377 493 c 3xe2
 377 534.333984375 380.117867807 558.447265625 397.853515625 588 c 1
 359.026612661 610.857421875 321.318563233 620 288 620 c 3
 160.14312066 620 245 507.448296261 245 459 c 3
 245 450.780056577 243 425.897689769 241 400 c 5
 246 401 283.671110734 403.999023438 311 403.999023438 c 1
 325.865255153 403.999023438 368 402 381 400 c 1xe9
511.853515625 704 m 1
 516.522204416 704.821777344 521.954419364 710.250502957 530 715 c 0
 596.896565083 754.490628756 645.028247676 762 683 762 c 3
 715 762 765 751 790 729 c 1
 788 675 790 675 692 601 c 1
 646.370845734 611.857421875 627.102926587 652 574 652 c 3
 455.781066547 652 531 542.125976562 531 498 c 3xda
 531 486.296875 525 436.87109375 523 400 c 1
 572.719625539 404 579.280374461 404 629 408 c 1
 629 316 l 1
 578.901449947 320 571.098550053 322 521 326 c 1
 519 311.223632812 519 297.6328125 519 293 c 3xd1
 519 219.577148438 514.40821678 149.586090849 531 79 c 0
 532.939453125 70.7490234375 544.81618242 59.0730865065 554 59 c 0
 607.379603795 58.5751953125 575.184430804 60.5 629 62 c 1
 623 -12 l 1
 553.625 -7 507.375 -5 438 -5 c 3
 399.048430586 -5 368.951569414 -8 330 -12 c 1
 326 60 l 1
 335.77734375 60 337.101929964 57.7658385019 346 60 c 0
 364.750740841 64.7080078125 376.649082164 98.1091463892 377 106 c 0xd2
 379 150.97265625 381 209.784179688 381 266 c 3
 381 278.645507812 379 302.3828125 379 326 c 1
 358.827956989 324 330.010752688 324 312 324 c 1
 277.734693878 324 304.551020408 324 239 326 c 1
 237 311.223632812 237 297.632812007 237 293 c 3
 237 219.577405858 226.160213214 147.819074197 249 79 c 0
 251.738341831 70.7490407674 260.052992468 59.6166254203 273 59 c 0
 278.946289062 59 281.931640625 59 286 59 c 1
 282 -14 l 1
 227.191489362 -9 208.808510638 -5 154 -5 c 3
 114.943396227 -5 55.0566037736 -8 16 -12 c 1
 14 60 l 1
 21.9444444445 60 32.9169467748 57.0836559971 40 60 c 0
 68.4365452413 71.7083333333 77.3026569702 98.3665437796 79 106 c 0
 89 150.972972973 95 209.783783784 95 266 c 3
 95 278.645902066 93 302.382978723 93 326 c 1
 65.9729729732 324 40.027027027 318 13 316 c 1
 13 408 l 1
 40.027027027 406 65.9729729732 402 93 400 c 1xd5
 93 437.78125 93 467.375 93 479 c 3xd8
 93 590.071090047 126.169902135 614.138759502 221 678 c 0
 270.005057147 711.001376257 325.846572317 730 387 730 c 3
 424.511002445 730 478.093613425 724 511.853515625 704 c 1
EndSplineSet
Validated: 524321
EndChar

StartChar: paragraph
Encoding: 182 182 72
Width: 605
VWidth: 1159
UnlinkRmOvrlpSave: 1
Flags: W
VStem: 331 76<68 415.583> 339 80<309.417 665>
LayerCount: 2
Fore
SplineSet
339 665 m 1x40
 419 681 l 1x40
 407 44 l 1
 331 68 l 1x80
 339 665 l 1x40
540 749 m 1
 544 639 l 1
 508.511627907 638.25 364.233559197 647.788542546 326 627 c 0
 289.17647134 606.015536248 288 593.08564578 288 205 c 3
 288 135.7 300.770976571 118.295659764 312 106 c 0
 321.861395647 97.2380952381 468.522300469 84.3333333333 487 92 c 1
 467 -16 l 1
 246.782710053 27.3043478261 203.029213044 60.4157242396 144 123 c 0
 86 191.490566038 58.308008219 276.891200643 41 343 c 0
 35.5443009018 363.838314408 32.3255994229 378.427847135 40 399 c 0
 70 479.418604651 120.132342829 594.092120989 222 665 c 0
 327.311688312 736 540 749 540 749 c 1
EndSplineSet
EndChar

StartChar: ampersand
Encoding: 38 38 73
Width: 676
VWidth: 1159
Flags: W
HStem: -18 120<490.615 591.812> -17 134<135.577 318.014> 407 89<610.729 674>
VStem: 5 161<161.847 280.519> 59 117<462.045 516> 240.5 144<448.419 513.95>
LayerCount: 2
Fore
SplineSet
190 292 m 1x74
 174.920309268 285.333558369 166 263.608213783 166 260 c 3
 166 171.676941177 193.679215687 117 281 117 c 3
 303.117666667 117 316.073 135.544 326.5 147.4 c 1
 273.896245059 263.552990654 218.189812746 281.18891174 190 292 c 1x74
198 520 m 1
 176 516 l 3x2c
 176 477.381818182 199.547014896 460.363636364 215 444 c 1
 232.1391875 456.413162298 240.5 467.906776462 240.5 479.400390625 c 3
 240.5 499.302090703 222.94559618 520 198 520 c 1
674 407 m 1
 620.404313253 407 590.861930886 375.361002766 565.5 330.4 c 0
 538.657736842 282.814700855 515.543982456 244.186752137 480.5 199.4 c 1
 516.337606838 134.271428571 548.346487179 102 575 102 c 3
 587.171105263 102 595.394473684 128.338 600 145 c 1
 684 108 l 1
 655.042 31.0619637168 636.491 -18 520 -18 c 3xac
 461.23 -18 412.44 3.8585433628 382.5 31.4004 c 1
 354.133 19.1987151261 338.401 -17 199 -17 c 3
 72.1538 -17 5 82.1475 5 172 c 3x74
 5 265.087950817 45.6381022391 329.883714479 92 360 c 1
 60.3018981128 388.632535063 59 439.84362202 59 506 c 3
 59 597.734673203 150 632.530653595 241 661 c 1
 342.646 626.239075604 384.5 570.621196572 384.5 481.400390625 c 3
 384.5 466.952710948 328 412 314 392 c 1
 351.491729167 381.619295533 400.820770833 346.412590972 424.5 309.4 c 1
 441.56132653 329.660286344 465.28888625 363.241834263 468.5 382.4 c 0
 475.146218487 422.052707825 437.333271709 447.2 419 458 c 1
 447 543 l 1
 507.835665571 517.069187965 613.574943167 494.379151454 686 496 c 1
 674 407 l 1
EndSplineSet
Validated: 524321
EndChar

StartChar: quotesingle
Encoding: 39 39 74
Width: 200
VWidth: 1159
Flags: W
HStem: 439.7 266<53 148>
VStem: 32 137<444.185 705.7> 53 95<439.7 698.854>
LayerCount: 2
Fore
SplineSet
32 705.700195312 m 9xc0
 169 705.700195312 l 17xc0
 168.224642857 633.476195312 149.999928571 535.349195312 148 439.700195312 c 9
 53 439.700195312 l 17xa0
 50.9079071429 535.220195312 32.8920071429 633.639195312 32 705.700195312 c 9xc0
EndSplineSet
Validated: 524289
EndChar

StartChar: parenleft
Encoding: 40 40 75
Width: 383
VWidth: 1515
Flags: W
VStem: 25 135<47.7567 377.041>
LayerCount: 2
Fore
SplineSet
337 730 m 1
 384 646 l 1
 232.950295019 562.328578947 160 424.229578947 160 214 c 3
 160 0.07572222222 222.092065134 -118.511161426 382 -217 c 1
 339 -307 l 1
 137.291 -198.753 25 -20.7029 25 214 c 3
 25 447.718 141.48 631.859 337 730 c 1
EndSplineSet
Validated: 524289
EndChar

StartChar: parenright
Encoding: 41 41 76
Width: 380
VWidth: 1516
Flags: W
VStem: 221 135<49.1167 380.844>
LayerCount: 2
Fore
SplineSet
46 730 m 17
 241.57 631.859 356 447.718 356 214 c 27
 356 -20.7029 244.734 -198.753 43 -307 c 1
 2 -216 l 17
 160.965312741 -117.739672956 221 -11.7915333333 221 214 c 3
 221 423.803263158 149.857633205 561.522263158 -1 645 c 1
 46 730 l 17
EndSplineSet
Validated: 524289
EndChar

StartChar: question
Encoding: 63 63 79
Width: 396
VWidth: 1159
Flags: W
HStem: -71.2686 263.736<150.772 207.97> 466.6 195.2<111.688 244.014>
VStem: 49.5967 262.406<29.6888 86.9238> 137 86<236 271.419> 301 82<433.182 474.773>
LayerCount: 2
Fore
SplineSet
44 466.599804688 m 1xd8
 69.5713857143 696.943415798 -44.8574 701.624 100 714.799804688 c 1
 122.120689655 665.599804687 108.344786207 661.799804688 128 661.799804688 c 3
 256.344062827 661.799804688 383 585.01973325 383 468.799804688 c 3
 383 308.763116163 313.342400282 296.386390493 303 294.799804688 c 0
 253.345 287.182431927 221.85 269.526754693 223 236 c 1
 223 236 159.932333333 232.799804688 137 232.799804688 c 1
 118.4545 339.080014492 100.637211988 419.973973988 188 451.799804688 c 0
 224.474822133 466.118858916 301 401.907873477 301 450.799804688 c 3
 301 499.294928758 228.613016949 465.657631445 44 466.599804688 c 1xd8
EndSplineSet
Refer: 48 46 N 1 0 0 1 70 0 2
Validated: 524321
EndChar

StartChar: at
Encoding: 64 64 80
Width: 802
VWidth: 1159
Flags: W
HStem: -205 128<313.496 520.01> -10.9609 102.121<429.45 576.679> 484.3 106.7<309.723 512.27>
VStem: 7 151<69.0141 288.899> 198.852 137.195<113.748 233.531> 633 139<185.696 377.872>
LayerCount: 2
Fore
SplineSet
574 341 m 1
 550.552044569 282.455672112 537.607767012 211.513958584 523.755 150.5 c 0
 521.537817066 140.734506394 517.14 130.568052866 517.14 126.6394 c 3
 517.14 101.659969197 527.436087054 91.16015625 544.860234375 91.16015625 c 3
 556.223970918 91.16015625 579.197405988 95.0273942112 597 123 c 0
 623.383391983 164.455319534 633 214.13937469 633 282 c 3
 633 412.8 539.583030928 484.3 391 484.3 c 3
 251.818386076 484.3 158 350.142 158 162.3 c 3
 158 18.6428961938 286.080016502 -77 421 -77 c 3
 523.635131147 -77 610.828901639 -32.0762933885 673 30 c 1
 699.13 8.16 713.87 -4.16 740 -26 c 1
 666.054216216 -117.794948718 539.396561562 -205 398 -205 c 3
 200.710628809 -205 7 -65.5085677419 7 157 c 3
 7 396.370069307 202.078222222 591 442 591 c 3
 608.352 591 772 474.504659341 772 288 c 3
 772 178.622417978 696.556675643 81.547286863 645 46 c 0
 605.187160989 18.5498513722 536.544396553 -10.9609375 468.595703125 -10.9609375 c 3
 390.304079014 -10.9609375 372.519642809 21.2156205296 369.810546875 49.099609375 c 1
 342.314081083 15.9784167678 318.012949412 22.5 305.955078125 22.5 c 3
 242.407390761 22.5 198.8515625 79.5245621487 198.8515625 147.970703125 c 3
 198.8515625 235.19331608 268.911211485 316.020986845 334.245117188 343 c 0
 365.674897918 355.978628151 415.064669513 359.702216499 454.200195312 369.798828125 c 0
 457.085409226 370.375817862 471.672693504 378.966653659 474.900390625 383.900390625 c 1
 588.245117188 382.30078125 l 1
 583.364578866 368.350725626 578.794742821 354.706745208 574 341 c 1
422.139648438 291.333007812 m 1
 418.827055277 291.332812516 421.98451142 290.217381298 418.140625 288.252929688 c 1
 392.568551971 282.263711031 367.687830602 266.853721502 354.895507812 252.333007812 c 0
 345.04403538 241.150487409 336.047 213.553498006 336.047 179.202 c 3
 336.047 165.627986107 342.509871652 159.680749796 357.545 154.324608376 c 1
 365.022611458 152.98353832 373.789281426 156.528312186 383.145 160.6 c 1
 383.35572886 167.122811586 398.026752465 205.487588455 406.410078125 241.099804688 c 0
 410.455563572 258.284953917 413.552750285 270.604823749 418.784179688 285.033203125 c 1
 419.672807952 287.227479722 420.958830056 289.248481557 422.139648438 291.333007812 c 1
EndSplineSet
Validated: 524321
EndChar

StartChar: exclam
Encoding: 33 33 81
Width: 295
VWidth: 1159
Flags: W
HStem: -71.2686 263.736<118.772 175.97>
VStem: 17.5967 262.406<29.6888 86.9238> 91 115<233 380.962>
LayerCount: 2
Fore
SplineSet
91 233 m 17xa0
 89.6667 353.37037037 85 444.111111111 71 533 c 0
 64.5384615385 580.777 25.7692307692 605.174 29 656 c 1
 205.441860465 676 299.108527132 733 310 671 c 1
 278 632.188 282 607.391 270 533 c 0
 245.724137931 417.230769231 206 356.104615385 206 232 c 9
 91 233 l 17xa0
EndSplineSet
Refer: 48 46 N 1 0 0 1 38 0 2
Validated: 524321
EndChar

StartChar: braceleft
Encoding: 123 123 82
Width: 266
VWidth: 1515
Flags: W
HStem: -235.7 92<212.955 267.5> 630.3 92<212.955 267.5>
VStem: 56.5 149<-137.33 7.33796 480.639 624.003> 79 162<-14.2935 160.365 326.182 501.085>
LayerCount: 2
Fore
SplineSet
267.5 722.299804688 m 1xe0
 267.5 722.299804688 267.5 666.179804687 267.5 630.299804688 c 1
 228.854610169 629.884654272 205.5 626.160630374 205.5 575.7 c 3xe0
 205.5 496.003 241 490.935 241 393 c 3
 241 336.698926544 177.465 266.521835257 166.5 243.299804688 c 1
 177.465 219.678836724 241 149.900932393 241 93.599609375 c 3xd0
 241 -3.089650625 205.5 -9.403730625 205.5 -89.100590625 c 3
 205.5 -141.000725499 228.870610169 -141.888042538 267.5 -143.700195312 c 1
 267.5 -235.700195312 l 1
 160.069283784 -239.203198887 56.5 -195.770154567 56.5 -39.7001953125 c 3xe0
 56.5 20.2272067041 79 52.5951077933 79 99.599609375 c 3
 79 138.274868054 55.725095122 189.428206183 5.5 207.299804688 c 1
 5.5 279.299804688 l 1
 55.725095122 297.170540998 79 348.323978064 79 387 c 3xd0
 79 434.003934096 56.5 466.371888713 56.5 526.299804688 c 3
 56.5 682.368804688 160.069283784 725.802804688 267.5 722.299804688 c 1xe0
EndSplineSet
Validated: 524321
EndChar

StartChar: bar
Encoding: 124 124 83
Width: 158
VWidth: 1515
Flags: W
HStem: 684 20G<30 128>
VStem: 30 98<-223 704>
LayerCount: 2
Fore
SplineSet
30 704 m 17
 128 704 l 9
 128 -223 l 1
 30 -223 l 1
 30 704 l 17
EndSplineSet
Validated: 1
EndChar

StartChar: asciitilde
Encoding: 126 126 85
Width: 436
VWidth: 0
Flags: W
HStem: 184.054 160<227.986 334.525> 225.393 158.891<117.007 218.067>
LayerCount: 2
Fore
SplineSet
17.1337990625 233.353515625 m 1x40
 52.0602765625 311.44434375 116.410234375 384.283890625 125.234609375 384.283890625 c 3x40
 168.056695313 384.283890625 258.7735 344.053734375 300.451171875 344.053734375 c 3
 306.305539063 344.053734375 325.54346875 367.19953125 331.216398438 401.10921875 c 1
 419 342.5390625 l 1
 391.745367187 270.782515625 341.373710938 184.053734375 327.675476562 184.053734375 c 3x80
 284.878914062 184.053734375 175.948703125 225.392601563 135.46484375 225.392601563 c 3
 127.667520313 225.392601563 109.451079687 193.71878125 101.20216875 173.93553125 c 1
 17.1337990625 233.353515625 l 1x40
EndSplineSet
Validated: 524289
EndChar

StartChar: bracketleft
Encoding: 91 91 86
Width: 246
VWidth: 1515
Flags: W
VStem: 25 194<-236 -140 629 723> 25 128<-115 602>
LayerCount: 2
Fore
SplineSet
153 602 m 1x40
 153 -115 l 1x40
 219 -140 l 1
 219 -236 l 1
 25 -236 l 1
 25 723 l 1
 219 723 l 1
 219 629 l 1x80
 153 602 l 1x40
EndSplineSet
Validated: 1
EndChar

StartChar: underscore
Encoding: 95 95 90
Width: 463
VWidth: 0
Flags: W
HStem: -260 88<0 463>
LayerCount: 2
Fore
SplineSet
0 -260 m 25
 0 -172 l 25
 463 -172 l 25
 463 -260 l 25
 0 -260 l 25
EndSplineSet
Validated: 1
EndChar

StartChar: minus
Encoding: 8722 8722 91
Width: 463
VWidth: 0
Flags: W
HStem: 216 128<21.2002 439.8>
LayerCount: 2
Fore
SplineSet
21.2001953125 344 m 25
 439.799804687 344 l 9
 439.799804687 216 l 9
 21.2001953125 216 l 9
 21.2001953125 344 l 25
EndSplineSet
Validated: 1
EndChar

StartChar: greater
Encoding: 62 62 96
Width: 463
VWidth: 0
Flags: W
LayerCount: 2
Fore
SplineSet
33.5 381.6 m 1
 117 498 l 1
 424 283 l 1
 70 67 l 1
 17 156 l 1
 198.5 260.6 l 1
 33.5 381.6 l 1
EndSplineSet
Validated: 524289
EndChar

StartChar: uni0335
Encoding: 821 821 97
Width: 0
VWidth: 1159
Flags: W
HStem: 489.5 76<-337.5 -15.5>
VStem: -337.5 322<489.5 565.5>
LayerCount: 2
Fore
SplineSet
-337.5 565.5 m 25
 -15.5 565.5 l 25
 -15.5 489.5 l 25
 -337.5 489.5 l 25
 -337.5 565.5 l 25
EndSplineSet
Validated: 1
EndChar

StartChar: asterisk
Encoding: 42 42 99
Width: 362
VWidth: 1159
Flags: W
VStem: 41.5625 149.321<393.027 470.848>
LayerCount: 2
Fore
SplineSet
190.883789063 488.368164062 m 1
 165.657130821 432.579492188 199.520775889 366.639127605 156.6640625 358.225585938 c 1
 106.258789062 344.9921875 35.8447265625 398.211914062 41.5625 443.087890625 c 1
 46.6722074465 484.310083254 94.783847241 464.461450441 139.95703125 519.120117187 c 1
 78.9121435205 532.54296875 25.3571418816 460.441127232 3.927734375 512.549804688 c 1
 -24.234375 556.3984375 4.6201171875 639.811523438 49.0673828125 648.2421875 c 1
 89.9678369535 655.029710672 86.537935086 604.299159163 152.759765625 577.693359375 c 1
 138.260793585 637.983091925 78.0746299345 673.476861884 103.5 705.5 c 1
 136.5 745.833007812 224.747070312 744.166992188 246.5 704.5 c 1
 262.831380208 667.347014925 218.729817708 654.052165928 213.431640625 582.42578125 c 1
 265.93866531 614.293719952 279.37047827 685.956355169 317.776367188 670.42578125 c 1
 366.333007812 651.50390625 392.017578125 567.060546875 361.014648438 534.115234375 c 1
 333.042462113 497.764335938 305.016741071 547.820117187 236.66796875 526.493164063 c 1
 282.399739583 486.819075521 354.809244792 497.095366753 350.6328125 455.798828125 c 1
 347.642578125 403.771484375 275.26953125 353.249023438 234.35546875 372.553710938 c 1
 195.175628662 389.175195312 229.999023437 429.127148438 190.883789063 488.368164062 c 1
EndSplineSet
Validated: 524321
EndChar
